<svg width="15" height="15" viewBox="0 0 15 15" fill="none" xmlns="http://www.w3.org/2000/svg">
<path d="M7.76548 0.446655C3.95866 0.446655 0.872314 3.533 0.872314 7.33982C0.872314 11.1466 3.95866 14.233 7.76548 14.233C11.5723 14.233 14.6586 11.1466 14.6586 7.33982C14.6586 3.533 11.5723 0.446655 7.76548 0.446655ZM10.9469 8.40031H7.76548C7.62485 8.40031 7.48998 8.34444 7.39054 8.245C7.2911 8.14556 7.23524 8.01069 7.23524 7.87006V3.09787C7.23524 2.95724 7.2911 2.82237 7.39054 2.72293C7.48998 2.62349 7.62485 2.56763 7.76548 2.56763C7.90611 2.56763 8.04098 2.62349 8.14042 2.72293C8.23986 2.82237 8.29572 2.95724 8.29572 3.09787V7.33982H10.9469C11.0876 7.33982 11.2224 7.39568 11.3219 7.49512C11.4213 7.59456 11.4772 7.72943 11.4772 7.87006C11.4772 8.01069 11.4213 8.14556 11.3219 8.245C11.2224 8.34444 11.0876 8.40031 10.9469 8.40031Z" fill="#BABFC8"/>
</svg>
