<?xml version="1.0" encoding="utf-8"?>
<!-- Generator: Adobe Illustrator 25.2.3, SVG Export Plug-In . SVG Version: 6.00 Build 0)  -->
<svg version="1.1" id="Группа_1" xmlns="http://www.w3.org/2000/svg" xmlns:xlink="http://www.w3.org/1999/xlink" x="0px"
	 y="0px" viewBox="0 0 664 135" style="enable-background:new 0 0 664 135;" xml:space="preserve">
<style type="text/css">
	.st0{enable-background:new    ;}
	.st1{fill:#666666;}
	.st2{fill:#FF9F18;}
</style>
<g class="st0">
	<path class="st1" d="M209.1,8.9v0.7h-5.4V8.9h1v-9.1h-1v-0.7h4.1c3,0,4.5,1,4.5,3c0,0.6-0.1,1.1-0.4,1.5c-0.2,0.4-0.6,0.8-1,1
		s-0.9,0.4-1.4,0.5s-1,0.2-1.6,0.2h-0.5v3.6H209.1z M209.6,2.2c0-0.7-0.1-1.3-0.4-1.7c-0.2-0.4-0.7-0.6-1.4-0.6h-0.3v4.8h0.3
		c0.4,0,0.7-0.1,0.9-0.2c0.2-0.1,0.4-0.3,0.6-0.6c0.1-0.3,0.2-0.5,0.2-0.8C209.6,2.9,209.6,2.6,209.6,2.2z"/>
	<path class="st1" d="M214.5,13.5c-0.5,0-1-0.1-1.3-0.4c-0.3-0.3-0.5-0.7-0.5-1.3c0-0.4,0.1-0.7,0.3-1c0.2-0.2,0.5-0.4,0.9-0.4
		c0.4,0,0.6,0.1,0.8,0.3c0.2,0.2,0.3,0.5,0.3,0.8c0,0.7-0.3,1-1,1.1c0.1,0.1,0.1,0.1,0.2,0.1c0.1,0,0.2,0,0.3,0
		c0.3,0,0.6-0.2,0.8-0.5c0.2-0.3,0.5-0.9,0.8-1.7l0.2-0.6l-3-7.5h-0.9V2h4.3v0.7H216l1.6,4l1.4-4h-1V2h2.7v0.7h-0.8l-2.5,7.2
		c-0.5,1.5-1,2.5-1.4,3C215.6,13.3,215.1,13.5,214.5,13.5z"/>
	<path class="st1" d="M227.1,7.1l0.7,0.1c-0.1,0.8-0.5,1.5-1,1.9c-0.5,0.5-1.2,0.7-2.1,0.7c-1.2,0-2.1-0.4-2.9-1.1
		c-0.7-0.8-1.1-1.7-1.1-3c0-1.2,0.4-2.2,1.1-2.9s1.8-1.1,3-1.1c0.9,0,1.5,0.2,2.1,0.5c0.5,0.4,0.8,1,0.8,1.8c0,0.4-0.1,0.7-0.3,0.9
		c-0.2,0.2-0.5,0.3-0.9,0.3c-0.4,0-0.7-0.1-1-0.3c-0.2-0.2-0.4-0.5-0.4-0.9c0-0.4,0.1-0.7,0.3-0.9c0.2-0.2,0.5-0.4,0.8-0.4
		c-0.1-0.1-0.2-0.2-0.4-0.3c-0.2-0.1-0.4-0.1-0.6-0.1c-0.3,0-0.6,0.1-0.8,0.2c-0.2,0.2-0.4,0.4-0.5,0.6c-0.1,0.2-0.2,0.5-0.3,0.9
		s-0.1,0.7-0.1,0.9c0,0.2,0,0.5,0,0.9c0,2.2,0.6,3.3,1.7,3.3C226.3,9,226.9,8.4,227.1,7.1z"/>
	<path class="st1" d="M235,7.1l0.7,0.1c-0.1,0.8-0.5,1.5-1,1.9c-0.5,0.5-1.2,0.7-2.1,0.7c-1.2,0-2.1-0.4-2.9-1.1
		c-0.7-0.8-1.1-1.7-1.1-3c0-1.2,0.4-2.2,1.1-2.9s1.8-1.1,3-1.1c0.9,0,1.5,0.2,2.1,0.5c0.5,0.4,0.8,1,0.8,1.8c0,0.4-0.1,0.7-0.3,0.9
		c-0.2,0.2-0.5,0.3-0.9,0.3c-0.4,0-0.7-0.1-1-0.3c-0.2-0.2-0.4-0.5-0.4-0.9c0-0.4,0.1-0.7,0.3-0.9c0.2-0.2,0.5-0.4,0.8-0.4
		c-0.1-0.1-0.2-0.2-0.4-0.3c-0.2-0.1-0.4-0.1-0.6-0.1c-0.3,0-0.6,0.1-0.8,0.2c-0.2,0.2-0.4,0.4-0.5,0.6c-0.1,0.2-0.2,0.5-0.3,0.9
		s-0.1,0.7-0.1,0.9c0,0.2,0,0.5,0,0.9c0,2.2,0.6,3.3,1.7,3.3C234.1,9,234.7,8.4,235,7.1z"/>
	<path class="st1" d="M244,9.8c-0.6,0-1.1-0.2-1.5-0.5c-0.3-0.3-0.6-0.8-0.8-1.4c-0.1-0.6-0.2-1-0.3-1.3c-0.1-0.3-0.2-0.4-0.4-0.5
		c-0.2-0.1-0.4-0.1-0.6-0.1h-0.2v2.9h0.9v0.7h-4.6V8.9h1V2.6h-1V2h4.6v0.7h-0.9v2.7h0.5c0.2,0,0.4-0.1,0.6-0.3s0.3-0.6,0.5-1.2
		c0.1-0.4,0.2-0.8,0.3-1c0.3-0.8,0.9-1.2,1.8-1.2c0.5,0,0.8,0.1,1.1,0.4c0.3,0.2,0.4,0.6,0.4,1c0,0.4-0.1,0.7-0.3,0.9
		c-0.2,0.2-0.5,0.4-0.8,0.4c-0.4,0-0.7-0.1-0.9-0.3c-0.2-0.2-0.3-0.5-0.3-0.9c0-0.1,0-0.2,0.1-0.3c0-0.1,0.1-0.2,0.1-0.3
		c-0.1,0.1-0.2,0.2-0.3,0.3c-0.1,0.2-0.2,0.5-0.3,0.9c-0.1,0.6-0.3,1-0.4,1.2c-0.1,0.2-0.3,0.4-0.5,0.5c0.8,0.2,1.5,0.4,1.9,0.7
		c0.3,0.2,0.5,0.4,0.7,0.6s0.2,0.6,0.4,1c0.1,0.5,0.2,0.7,0.3,0.8c0.1,0.1,0.1,0.1,0.2,0.1c0.1,0,0.2-0.1,0.3-0.4s0.1-0.7,0.1-1.2
		h0.6c0,0.8-0.1,1.5-0.4,1.9C245.3,9.6,244.8,9.8,244,9.8z"/>
	<path class="st1" d="M253.3,9.8c-1.2,0-1.9-0.6-2-1.9c-0.2,0.6-0.5,1.1-0.9,1.4c-0.5,0.3-1,0.5-1.7,0.5c-0.7,0-1.2-0.2-1.6-0.5
		c-0.4-0.3-0.7-0.8-0.7-1.4c0-0.4,0.1-0.8,0.3-1.1c0.2-0.3,0.5-0.6,0.9-0.7s0.8-0.3,1.1-0.4c0.3-0.1,0.7-0.2,1.2-0.2l1.1-0.2V4.3
		c0-1.2-0.5-1.8-1.6-1.8c-0.5,0-0.8,0.1-1.1,0.3c0.6,0.2,0.9,0.6,0.9,1.2c0,0.4-0.1,0.7-0.3,0.9s-0.5,0.3-0.9,0.3
		c-0.4,0-0.7-0.1-1-0.3c-0.2-0.2-0.4-0.5-0.4-0.9c0-0.4,0.1-0.8,0.4-1.1c0.3-0.3,0.6-0.5,1-0.7c0.4-0.2,0.8-0.3,1.2-0.4
		c0.4-0.1,0.8-0.1,1.2-0.1c0.4,0,0.8,0,1.2,0.1c0.4,0.1,0.7,0.2,1.1,0.4s0.6,0.4,0.8,0.8s0.3,0.7,0.3,1.2v4.1c0,0.2,0,0.4,0.1,0.5
		c0.1,0.1,0.2,0.2,0.3,0.2c0.4,0,0.6-0.5,0.6-1.5h0.6c0,0.8-0.1,1.5-0.4,1.9C254.6,9.6,254.1,9.8,253.3,9.8z M249.1,7.5
		c0,0.6,0.2,0.9,0.7,0.9c0.7,0,1.1-0.7,1.1-2V6l-0.5,0.1c-0.4,0.1-0.8,0.3-1,0.5C249.3,6.8,249.1,7.1,249.1,7.5z"/>
	<path class="st1" d="M259.8,6.8c-0.1,0.3-0.2,0.5-0.2,0.6c-0.1,0.4-0.2,0.7-0.3,1s-0.2,0.5-0.4,0.7s-0.4,0.4-0.7,0.5
		c-0.3,0.1-0.6,0.2-1,0.2c-0.4,0-0.7-0.1-1-0.2c-0.3-0.1-0.5-0.3-0.6-0.6c-0.1-0.3-0.2-0.5-0.2-0.8c0-0.3-0.1-0.6-0.1-1h0.6
		c0,0.5,0,0.9,0.1,1.2c0.1,0.3,0.1,0.4,0.3,0.4c0.1,0,0.1,0,0.2-0.1c0.1-0.1,0.2-0.4,0.3-0.9c0.2-0.7,0.4-1.1,0.7-1.3
		c0.3-0.2,0.8-0.5,1.6-0.7c-0.3,0-0.6-0.1-0.9-0.1s-0.6-0.2-0.9-0.3s-0.6-0.3-0.8-0.6c-0.2-0.3-0.3-0.5-0.3-0.9
		c0-0.3,0.1-0.6,0.2-0.9c0.2-0.2,0.4-0.4,0.6-0.6s0.5-0.3,0.9-0.3c0.3-0.1,0.6-0.2,0.9-0.2c0.3,0,0.6,0,0.9,0h4.9v0.7h-1v6.3h1v0.7
		h-4.6V8.9h0.8V6.1h-0.2C260.4,6.1,260,6.3,259.8,6.8z M260.6,5.5h0.4V2.6h-0.4c-0.4,0-0.8,0.1-1.1,0.4c-0.3,0.3-0.4,0.6-0.4,1.1
		c0,0.5,0.1,0.8,0.4,1C259.7,5.3,260.1,5.5,260.6,5.5z"/>
	<path class="st1" d="M273.9,8.9v0.7h-4.6V8.9h1v-9.1h-1v-0.7h10.2v0.7h-1v9.1h1v0.7h-4.6V8.9h0.8v-9.1h-2.6v9.1H273.9z"/>
	<path class="st1" d="M284,9v3.7h1.8v0.7h-5.5v-0.7h1v-10h-1V2c1.4,0,2.4-0.1,2.8-0.2l0.4,0.1v2.3c0.1-0.8,0.4-1.4,0.9-1.8
		c0.5-0.5,1.1-0.7,1.8-0.7c0.7,0,1.2,0.2,1.7,0.6c0.5,0.4,0.8,0.9,1,1.5c0.2,0.6,0.3,1.2,0.3,1.9c0,0.7-0.1,1.3-0.4,1.9
		s-0.6,1.1-1.1,1.6c-0.5,0.4-1.1,0.6-1.8,0.6C285,9.8,284.4,9.6,284,9z M285.2,8.9c0.4,0,0.7-0.2,0.9-0.7c0.2-0.4,0.3-1.2,0.3-2.3
		c0-1.1-0.1-1.9-0.3-2.4c-0.2-0.5-0.5-0.7-0.9-0.7c-0.8,0-1.2,0.9-1.2,2.7v1.1C284,8.2,284.4,8.9,285.2,8.9z"/>
	<path class="st1" d="M296.9,9.8c-1.2,0-1.9-0.6-2-1.9c-0.2,0.6-0.5,1.1-0.9,1.4c-0.5,0.3-1,0.5-1.7,0.5c-0.7,0-1.2-0.2-1.6-0.5
		c-0.4-0.3-0.7-0.8-0.7-1.4c0-0.4,0.1-0.8,0.3-1.1c0.2-0.3,0.5-0.6,0.9-0.7s0.8-0.3,1.1-0.4c0.3-0.1,0.7-0.2,1.2-0.2l1.1-0.2V4.3
		c0-1.2-0.5-1.8-1.6-1.8c-0.5,0-0.8,0.1-1.1,0.3c0.6,0.2,0.9,0.6,0.9,1.2c0,0.4-0.1,0.7-0.3,0.9s-0.5,0.3-0.9,0.3
		c-0.4,0-0.7-0.1-1-0.3c-0.2-0.2-0.4-0.5-0.4-0.9c0-0.4,0.1-0.8,0.4-1.1c0.3-0.3,0.6-0.5,1-0.7c0.4-0.2,0.8-0.3,1.2-0.4
		c0.4-0.1,0.8-0.1,1.2-0.1c0.4,0,0.8,0,1.2,0.1c0.4,0.1,0.7,0.2,1.1,0.4s0.6,0.4,0.8,0.8s0.3,0.7,0.3,1.2v4.1c0,0.2,0,0.4,0.1,0.5
		c0.1,0.1,0.2,0.2,0.3,0.2c0.4,0,0.6-0.5,0.6-1.5h0.6c0,0.8-0.1,1.5-0.4,1.9C298.2,9.6,297.7,9.8,296.9,9.8z M292.7,7.5
		c0,0.6,0.2,0.9,0.7,0.9c0.7,0,1.1-0.7,1.1-2V6L294,6.1c-0.4,0.1-0.8,0.3-1,0.5C292.8,6.8,292.7,7.1,292.7,7.5z"/>
	<path class="st1" d="M303.7,9.6h-4.4V8.9h1V2.6h-1V2h4.4c0.3,0,0.5,0,0.8,0c0.2,0,0.5,0,0.8,0.1c0.3,0,0.6,0.1,0.8,0.2
		c0.2,0.1,0.4,0.2,0.7,0.3c0.2,0.1,0.4,0.3,0.5,0.5c0.1,0.2,0.2,0.5,0.2,0.8c0,1-0.8,1.6-2.2,1.7c1.7,0.1,2.6,0.7,2.6,1.9
		c0,0.4-0.1,0.7-0.3,1s-0.4,0.5-0.7,0.6s-0.6,0.3-1,0.3s-0.7,0.1-1,0.1S304.1,9.6,303.7,9.6z M304.7,3.9c0-0.9-0.5-1.3-1.4-1.3h-0.2
		v2.7h0.4c0.5,0,0.8-0.1,1-0.3C304.6,4.8,304.7,4.4,304.7,3.9z M303.4,6h-0.3v2.9h0.3c0.5,0,1-0.1,1.2-0.3S305,8,305,7.5
		c0-0.6-0.1-0.9-0.4-1.2C304.4,6.1,303.9,6,303.4,6z"/>
	<path class="st1" d="M309.9,2.8c0.8-0.8,1.8-1.1,2.9-1.1c1.2,0,2.2,0.4,2.9,1.2c0.8,0.8,1.2,1.8,1.2,2.9c0,1.2-0.4,2.1-1.2,2.9
		c-0.8,0.8-1.8,1.1-2.9,1.1c-1.2,0-2.2-0.4-2.9-1.2c-0.8-0.8-1.2-1.8-1.2-2.9C308.7,4.5,309.1,3.6,309.9,2.8z M312.8,2.4
		c-0.5,0-0.8,0.3-1,0.8c-0.2,0.5-0.3,1.4-0.3,2.6c0,1.2,0.1,2.1,0.3,2.6c0.2,0.5,0.5,0.8,1,0.8c0.5,0,0.8-0.3,1-0.8
		c0.2-0.5,0.3-1.4,0.3-2.5c0-1.2-0.1-2-0.3-2.6C313.6,2.7,313.2,2.4,312.8,2.4z"/>
	<path class="st1" d="M324.1,7.1l0.7,0.1c-0.1,0.8-0.5,1.5-1,1.9c-0.5,0.5-1.2,0.7-2.1,0.7c-1.2,0-2.1-0.4-2.9-1.1
		c-0.7-0.8-1.1-1.7-1.1-3c0-1.2,0.4-2.2,1.1-2.9s1.8-1.1,3-1.1c0.9,0,1.5,0.2,2.1,0.5c0.5,0.4,0.8,1,0.8,1.8c0,0.4-0.1,0.7-0.3,0.9
		c-0.2,0.2-0.5,0.3-0.9,0.3c-0.4,0-0.7-0.1-1-0.3c-0.2-0.2-0.4-0.5-0.4-0.9c0-0.4,0.1-0.7,0.3-0.9c0.2-0.2,0.5-0.4,0.8-0.4
		c-0.1-0.1-0.2-0.2-0.4-0.3c-0.2-0.1-0.4-0.1-0.6-0.1c-0.3,0-0.6,0.1-0.8,0.2c-0.2,0.2-0.4,0.4-0.5,0.6c-0.1,0.2-0.2,0.5-0.3,0.9
		s-0.1,0.7-0.1,0.9c0,0.2,0,0.5,0,0.9c0,2.2,0.6,3.3,1.7,3.3C323.2,9,323.8,8.4,324.1,7.1z"/>
	<path class="st1" d="M330.5,8.9V2.6h-1.6c0,1.8,0,3.2-0.1,4.1c-0.1,1.1-0.3,1.9-0.6,2.4c-0.3,0.5-0.8,0.7-1.4,0.7
		c-0.4,0-0.8-0.1-1-0.4s-0.4-0.6-0.4-1c0-0.4,0.1-0.7,0.3-0.9c0.2-0.2,0.5-0.3,0.8-0.3c0.3,0,0.6,0.1,0.8,0.3
		c0.2,0.2,0.3,0.4,0.3,0.8c0,0.3-0.1,0.6-0.2,0.8c0.5-0.4,0.8-1.4,0.8-3.1c0-0.1,0-0.3,0-0.5c0-0.2,0-0.4,0-0.5V2.6h-1.2V2h7.4v0.7
		h-1v6.3h1v0.7h-4.5V8.9H330.5z"/>
	<path class="st1" d="M341.9,9.8c-1.2,0-1.9-0.6-2-1.9c-0.2,0.6-0.5,1.1-0.9,1.4c-0.5,0.3-1,0.5-1.7,0.5c-0.6,0-1.2-0.2-1.6-0.5
		c-0.4-0.3-0.7-0.8-0.7-1.4c0-0.4,0.1-0.8,0.3-1.1c0.2-0.3,0.5-0.6,0.9-0.7c0.4-0.2,0.8-0.3,1.1-0.4s0.7-0.2,1.2-0.2l1.1-0.2V4.3
		c0-1.2-0.5-1.8-1.6-1.8c-0.5,0-0.8,0.1-1.1,0.3c0.6,0.2,0.9,0.6,0.9,1.2c0,0.4-0.1,0.7-0.3,0.9c-0.2,0.2-0.5,0.3-0.9,0.3
		c-0.4,0-0.7-0.1-1-0.3s-0.4-0.5-0.4-0.9c0-0.4,0.1-0.8,0.4-1.1s0.6-0.5,1-0.7c0.4-0.2,0.8-0.3,1.2-0.4c0.4-0.1,0.8-0.1,1.2-0.1
		c0.4,0,0.8,0,1.2,0.1c0.4,0.1,0.7,0.2,1,0.4s0.6,0.4,0.8,0.8s0.3,0.7,0.3,1.2v4.1c0,0.2,0,0.4,0.1,0.5c0.1,0.1,0.2,0.2,0.3,0.2
		c0.4,0,0.6-0.5,0.6-1.5h0.6c0,0.8-0.1,1.5-0.4,1.9C343.2,9.6,342.6,9.8,341.9,9.8z M337.7,7.5c0,0.6,0.2,0.9,0.7,0.9
		c0.7,0,1.1-0.7,1.1-2V6L339,6.1c-0.4,0.1-0.8,0.3-1,0.5C337.8,6.8,337.7,7.1,337.7,7.5z"/>
	<path class="st1" d="M348.7,9.6h-4.4V8.9h1V2.6h-1V2h4.4c0.3,0,0.5,0,0.8,0c0.2,0,0.5,0,0.8,0.1c0.3,0,0.6,0.1,0.8,0.2
		s0.4,0.2,0.7,0.3c0.2,0.1,0.4,0.3,0.5,0.5s0.2,0.5,0.2,0.8c0,1-0.8,1.6-2.2,1.7c1.7,0.1,2.5,0.7,2.5,1.9c0,0.4-0.1,0.7-0.3,1
		c-0.2,0.3-0.4,0.5-0.7,0.6s-0.6,0.3-1,0.3c-0.4,0.1-0.7,0.1-1,0.1C349.4,9.6,349.1,9.6,348.7,9.6z M349.7,3.9
		c0-0.9-0.5-1.3-1.4-1.3H348v2.7h0.4c0.5,0,0.8-0.1,1-0.3C349.6,4.8,349.7,4.4,349.7,3.9z M348.3,6H348v2.9h0.3c0.5,0,1-0.1,1.2-0.3
		c0.3-0.2,0.4-0.6,0.4-1.1c0-0.6-0.1-0.9-0.4-1.2C349.3,6.1,348.9,6,348.3,6z"/>
	<path class="st1" d="M357.2,6v2.9h0.8v0.7h-4.5V8.9h1V2.6h-1V2h4.5v0.7h-0.8v2.7h2.3V2.6h-0.8V2h4.5v0.7h-1v6.3h1v0.7h-4.5V8.9h0.8
		V6H357.2z"/>
	<path class="st1" d="M370.9,9.8c-1.2,0-1.9-0.6-2-1.9c-0.2,0.6-0.5,1.1-0.9,1.4c-0.5,0.3-1,0.5-1.7,0.5c-0.6,0-1.2-0.2-1.6-0.5
		c-0.4-0.3-0.7-0.8-0.7-1.4c0-0.4,0.1-0.8,0.3-1.1c0.2-0.3,0.5-0.6,0.9-0.7c0.4-0.2,0.8-0.3,1.1-0.4s0.7-0.2,1.2-0.2l1.1-0.2V4.3
		c0-1.2-0.5-1.8-1.6-1.8c-0.5,0-0.8,0.1-1.1,0.3c0.6,0.2,0.9,0.6,0.9,1.2c0,0.4-0.1,0.7-0.3,0.9c-0.2,0.2-0.5,0.3-0.9,0.3
		c-0.4,0-0.7-0.1-1-0.3s-0.4-0.5-0.4-0.9c0-0.4,0.1-0.8,0.4-1.1s0.6-0.5,1-0.7c0.4-0.2,0.8-0.3,1.2-0.4c0.4-0.1,0.8-0.1,1.2-0.1
		c0.4,0,0.8,0,1.2,0.1c0.4,0.1,0.7,0.2,1,0.4s0.6,0.4,0.8,0.8s0.3,0.7,0.3,1.2v4.1c0,0.2,0,0.4,0.1,0.5c0.1,0.1,0.2,0.2,0.3,0.2
		c0.4,0,0.6-0.5,0.6-1.5h0.6c0,0.8-0.1,1.5-0.4,1.9C372.2,9.6,371.7,9.8,370.9,9.8z M366.7,7.5c0,0.6,0.2,0.9,0.7,0.9
		c0.7,0,1.1-0.7,1.1-2V6l-0.5,0.1c-0.4,0.1-0.8,0.3-1,0.5C366.9,6.8,366.7,7.1,366.7,7.5z"/>
	<path class="st1" d="M377.4,6.8c-0.1,0.3-0.2,0.5-0.2,0.6c-0.1,0.4-0.2,0.7-0.3,1s-0.2,0.5-0.4,0.7s-0.4,0.4-0.7,0.5
		c-0.3,0.1-0.6,0.2-1,0.2c-0.4,0-0.7-0.1-1-0.2s-0.5-0.3-0.6-0.6s-0.2-0.5-0.2-0.8c0-0.3-0.1-0.6-0.1-1h0.6c0,0.5,0,0.9,0.1,1.2
		c0.1,0.3,0.1,0.4,0.3,0.4c0.1,0,0.1,0,0.2-0.1c0.1-0.1,0.2-0.4,0.3-0.9c0.2-0.7,0.4-1.1,0.7-1.3c0.3-0.2,0.8-0.5,1.6-0.7
		c-0.3,0-0.6-0.1-0.9-0.1s-0.6-0.2-0.9-0.3c-0.3-0.1-0.6-0.3-0.8-0.6c-0.2-0.3-0.3-0.5-0.3-0.9c0-0.3,0.1-0.6,0.2-0.9
		c0.2-0.2,0.4-0.4,0.6-0.6s0.5-0.3,0.9-0.3c0.3-0.1,0.6-0.2,0.9-0.2c0.3,0,0.6,0,0.9,0h4.9v0.7h-1v6.3h1v0.7h-4.6V8.9h0.8V6.1h-0.2
		C378,6.1,377.6,6.3,377.4,6.8z M378.2,5.5h0.4V2.6h-0.4c-0.4,0-0.8,0.1-1.1,0.4c-0.3,0.3-0.4,0.6-0.4,1.1c0,0.5,0.1,0.8,0.4,1
		C377.3,5.3,377.7,5.5,378.2,5.5z"/>
	<path class="st1" d="M397.6,8.9v3.4h-0.7v-0.2c0-0.8-0.2-1.5-0.6-1.9c-0.4-0.4-1-0.6-1.8-0.6h-7.7V8.9h1v-9.1h-1v-0.7h4.6v0.7h-0.8
		v9.1h2.6v-9.1h-0.8v-0.7h4.6v0.7h-1v9.1H397.6z"/>
	<path class="st1" d="M402.4,9.8c-1.2,0-2.2-0.4-3-1.1c-0.8-0.8-1.2-1.8-1.2-3c0-1.2,0.4-2.1,1.1-2.9c0.7-0.8,1.7-1.1,2.8-1.1
		c1.1,0,2,0.3,2.7,1c0.7,0.7,1,1.5,1,2.6v0.3c0,0,0,0.1,0,0.1s0,0.1,0,0.1H401V6c0,2,0.6,3,1.9,3c1.1,0,1.8-0.6,2.1-1.9l0.7,0.1
		c-0.1,0.8-0.5,1.5-1.1,2S403.2,9.8,402.4,9.8z M402.1,2.4c-0.4,0-0.7,0.2-0.8,0.6c-0.2,0.4-0.3,1.1-0.3,2.2h2.2
		c0-1.1-0.1-1.9-0.2-2.2C402.8,2.5,402.5,2.4,402.1,2.4z"/>
	<path class="st1" d="M410.4,9v3.7h1.8v0.7h-5.5v-0.7h1v-10h-1V2c1.5,0,2.4-0.1,2.8-0.2l0.5,0.1v2.3c0.1-0.8,0.4-1.4,0.9-1.8
		c0.5-0.5,1.1-0.7,1.8-0.7c0.7,0,1.2,0.2,1.7,0.6s0.8,0.9,1,1.5c0.2,0.6,0.3,1.2,0.3,1.9c0,0.7-0.1,1.3-0.4,1.9
		c-0.2,0.6-0.6,1.1-1.1,1.6c-0.5,0.4-1.1,0.6-1.8,0.6C411.4,9.8,410.7,9.6,410.4,9z M411.5,8.9c0.4,0,0.7-0.2,0.9-0.7
		c0.2-0.4,0.3-1.2,0.3-2.3c0-1.1-0.1-1.9-0.3-2.4c-0.2-0.5-0.5-0.7-0.9-0.7c-0.8,0-1.2,0.9-1.2,2.7v1.1
		C410.4,8.2,410.7,8.9,411.5,8.9z"/>
	<path class="st1" d="M423.9,9.8c-0.6,0-1.1-0.2-1.5-0.5s-0.6-0.8-0.8-1.4c-0.1-0.6-0.2-1-0.3-1.3c-0.1-0.3-0.2-0.4-0.4-0.5
		c-0.2-0.1-0.4-0.1-0.6-0.1h-0.2v2.9h0.9v0.7h-4.6V8.9h1V2.6h-1V2h4.6v0.7h-0.9v2.7h0.5c0.2,0,0.4-0.1,0.6-0.3
		c0.2-0.2,0.3-0.6,0.5-1.2c0.1-0.4,0.2-0.8,0.3-1c0.3-0.8,0.9-1.2,1.8-1.2c0.5,0,0.8,0.1,1.1,0.4c0.3,0.2,0.4,0.6,0.4,1
		c0,0.4-0.1,0.7-0.3,0.9c-0.2,0.2-0.5,0.4-0.8,0.4c-0.4,0-0.7-0.1-0.9-0.3c-0.2-0.2-0.3-0.5-0.3-0.9c0-0.1,0-0.2,0.1-0.3
		c0-0.1,0.1-0.2,0.1-0.3c-0.1,0.1-0.2,0.2-0.3,0.3c-0.1,0.2-0.2,0.5-0.3,0.9c-0.2,0.6-0.3,1-0.4,1.2c-0.1,0.2-0.3,0.4-0.5,0.5
		c0.8,0.2,1.5,0.4,1.9,0.7c0.3,0.2,0.5,0.4,0.7,0.6s0.2,0.6,0.4,1c0.1,0.5,0.2,0.7,0.3,0.8c0,0.1,0.1,0.1,0.2,0.1
		c0.1,0,0.2-0.1,0.3-0.4c0.1-0.3,0.1-0.7,0.1-1.2h0.6c0,0.8-0.1,1.5-0.4,1.9C425.2,9.6,424.7,9.8,423.9,9.8z"/>
	<path class="st1" d="M427.6,2.8c0.8-0.8,1.8-1.1,2.9-1.1s2.2,0.4,2.9,1.2c0.8,0.8,1.2,1.8,1.2,2.9c0,1.2-0.4,2.1-1.2,2.9
		c-0.8,0.8-1.8,1.1-2.9,1.1c-1.2,0-2.2-0.4-2.9-1.2c-0.8-0.8-1.2-1.8-1.2-2.9C426.4,4.5,426.8,3.6,427.6,2.8z M430.5,2.4
		c-0.5,0-0.8,0.3-1,0.8c-0.2,0.5-0.3,1.4-0.3,2.6c0,1.2,0.1,2.1,0.3,2.6c0.2,0.5,0.5,0.8,1,0.8c0.5,0,0.8-0.3,1-0.8
		c0.2-0.5,0.3-1.4,0.3-2.5c0-1.2-0.1-2-0.3-2.6C431.3,2.7,430.9,2.4,430.5,2.4z"/>
	<path class="st1" d="M439.8,9.6h-4.4V8.9h1V2.6h-1V2h4.4c0.3,0,0.5,0,0.8,0c0.2,0,0.5,0,0.8,0.1c0.3,0,0.6,0.1,0.8,0.2
		s0.4,0.2,0.7,0.3c0.2,0.1,0.4,0.3,0.5,0.5s0.2,0.5,0.2,0.8c0,1-0.8,1.6-2.2,1.7c1.7,0.1,2.5,0.7,2.5,1.9c0,0.4-0.1,0.7-0.3,1
		c-0.2,0.3-0.4,0.5-0.7,0.6s-0.6,0.3-1,0.3c-0.4,0.1-0.7,0.1-1,0.1C440.5,9.6,440.2,9.6,439.8,9.6z M440.8,3.9
		c0-0.9-0.5-1.3-1.4-1.3h-0.2v2.7h0.4c0.5,0,0.8-0.1,1-0.3C440.7,4.8,440.8,4.4,440.8,3.9z M439.5,6h-0.3v2.9h0.3
		c0.5,0,1-0.1,1.2-0.3c0.3-0.2,0.4-0.6,0.4-1.1c0-0.6-0.1-0.9-0.4-1.2C440.5,6.1,440,6,439.5,6z"/>
	<path class="st1" d="M449.6,2.6h-1.3v2.3h1.1c0.4,0,0.8,0,1.2,0.1c0.4,0.1,0.7,0.2,1.1,0.3c0.4,0.2,0.6,0.4,0.8,0.7
		s0.3,0.7,0.3,1.2c0,0.5-0.1,0.8-0.3,1.2s-0.5,0.6-0.8,0.7c-0.3,0.2-0.7,0.3-1.1,0.4s-0.8,0.1-1.2,0.1h-4.9V8.9h1V2.6h-1V2h5V2.6z
		 M448.8,5.6h-0.5v3.4h0.5c0.5,0,0.8-0.2,1-0.5c0.2-0.3,0.3-0.7,0.3-1.2C450.2,6.1,449.7,5.6,448.8,5.6z"/>
</g>
<g class="st0">
	<path class="st1" d="M233.5,21.4v8.3h1.6v0.7h-3.4v-0.7h1v-9.1h-1v-0.7h4l2.1,5.5l2.1-5.5h4v0.7h-1v9.1h1v0.7H239v-0.7h1.1v-8.2
		l-2.9,7.5h-0.8L233.5,21.4z"/>
	<path class="st1" d="M245.9,23.6c0.8-0.8,1.8-1.1,2.9-1.1c1.2,0,2.2,0.4,2.9,1.2c0.8,0.8,1.2,1.8,1.2,2.9c0,1.2-0.4,2.1-1.2,2.9
		c-0.8,0.8-1.8,1.1-2.9,1.1c-1.2,0-2.2-0.4-2.9-1.2c-0.8-0.8-1.2-1.8-1.2-2.9C244.8,25.3,245.2,24.3,245.9,23.6z M248.9,23.1
		c-0.5,0-0.8,0.3-1,0.8c-0.2,0.5-0.3,1.4-0.3,2.6c0,1.2,0.1,2.1,0.3,2.6c0.2,0.5,0.5,0.8,1,0.8c0.5,0,0.8-0.3,1-0.8
		c0.2-0.5,0.3-1.4,0.3-2.5c0-1.2-0.1-2-0.3-2.6C249.7,23.4,249.3,23.1,248.9,23.1z"/>
	<path class="st1" d="M260.2,27.9l0.7,0.1c-0.1,0.8-0.5,1.5-1,1.9c-0.5,0.5-1.2,0.7-2.1,0.7c-1.2,0-2.1-0.4-2.9-1.1
		c-0.7-0.8-1.1-1.7-1.1-3c0-1.2,0.4-2.2,1.1-2.9s1.8-1.1,3-1.1c0.9,0,1.5,0.2,2.1,0.5c0.5,0.4,0.8,1,0.8,1.8c0,0.4-0.1,0.7-0.3,0.9
		c-0.2,0.2-0.5,0.3-0.9,0.3c-0.4,0-0.7-0.1-1-0.3c-0.2-0.2-0.4-0.5-0.4-0.9c0-0.4,0.1-0.7,0.3-0.9c0.2-0.2,0.5-0.4,0.8-0.4
		c-0.1-0.1-0.2-0.2-0.4-0.3c-0.2-0.1-0.4-0.1-0.6-0.1c-0.3,0-0.6,0.1-0.8,0.2c-0.2,0.2-0.4,0.4-0.5,0.6c-0.1,0.2-0.2,0.5-0.3,0.9
		s-0.1,0.7-0.1,0.9c0,0.2,0,0.5,0,0.9c0,2.2,0.6,3.3,1.7,3.3C259.3,29.7,259.9,29.1,260.2,27.9z"/>
	<path class="st1" d="M269.2,30.6c-0.6,0-1.1-0.2-1.5-0.5c-0.3-0.3-0.6-0.8-0.8-1.4c-0.1-0.6-0.2-1-0.3-1.3
		c-0.1-0.3-0.2-0.4-0.4-0.5c-0.2-0.1-0.4-0.1-0.6-0.1h-0.2v2.9h0.9v0.7h-4.6v-0.7h1v-6.3h-1v-0.7h4.6v0.7h-0.9v2.7h0.5
		c0.2,0,0.4-0.1,0.6-0.3s0.3-0.6,0.5-1.2c0.1-0.4,0.2-0.8,0.3-1c0.3-0.8,0.9-1.2,1.8-1.2c0.5,0,0.8,0.1,1.1,0.4
		c0.3,0.2,0.4,0.6,0.4,1c0,0.4-0.1,0.7-0.3,0.9c-0.2,0.2-0.5,0.4-0.8,0.4c-0.4,0-0.7-0.1-0.9-0.3c-0.2-0.2-0.3-0.5-0.3-0.9
		c0-0.1,0-0.2,0.1-0.3c0-0.1,0.1-0.2,0.1-0.3c-0.1,0.1-0.2,0.2-0.3,0.3c-0.1,0.2-0.2,0.5-0.3,0.9c-0.1,0.6-0.3,1-0.4,1.2
		c-0.1,0.2-0.3,0.4-0.5,0.5c0.8,0.2,1.5,0.4,1.9,0.7c0.3,0.2,0.5,0.4,0.7,0.6s0.2,0.6,0.4,1c0.1,0.5,0.2,0.7,0.3,0.8
		c0.1,0.1,0.1,0.1,0.2,0.1c0.1,0,0.2-0.1,0.3-0.4s0.1-0.7,0.1-1.2h0.6c0,0.8-0.1,1.5-0.4,1.9C270.5,30.4,270,30.6,269.2,30.6z"/>
	<path class="st1" d="M272.9,23.6c0.8-0.8,1.8-1.1,2.9-1.1c1.2,0,2.2,0.4,2.9,1.2c0.8,0.8,1.2,1.8,1.2,2.9c0,1.2-0.4,2.1-1.2,2.9
		c-0.8,0.8-1.8,1.1-2.9,1.1c-1.2,0-2.2-0.4-2.9-1.2c-0.8-0.8-1.2-1.8-1.2-2.9C271.7,25.3,272.1,24.3,272.9,23.6z M275.8,23.1
		c-0.5,0-0.8,0.3-1,0.8c-0.2,0.5-0.3,1.4-0.3,2.6c0,1.2,0.1,2.1,0.3,2.6c0.2,0.5,0.5,0.8,1,0.8c0.5,0,0.8-0.3,1-0.8
		c0.2-0.5,0.3-1.4,0.3-2.5c0-1.2-0.1-2-0.3-2.6C276.6,23.4,276.3,23.1,275.8,23.1z"/>
	<path class="st1" d="M285.1,30.3h-4.4v-0.7h1v-6.3h-1v-0.7h4.4c0.3,0,0.5,0,0.8,0c0.2,0,0.5,0,0.8,0.1c0.3,0,0.6,0.1,0.8,0.2
		c0.2,0.1,0.4,0.2,0.7,0.3c0.2,0.1,0.4,0.3,0.5,0.5c0.1,0.2,0.2,0.5,0.2,0.8c0,1-0.8,1.6-2.2,1.7c1.7,0.1,2.6,0.7,2.6,1.9
		c0,0.4-0.1,0.7-0.3,1s-0.4,0.5-0.7,0.6s-0.6,0.3-1,0.3s-0.7,0.1-1,0.1S285.5,30.3,285.1,30.3z M286.1,24.7c0-0.9-0.5-1.3-1.4-1.3
		h-0.2v2.7h0.4c0.5,0,0.8-0.1,1-0.3C286.1,25.5,286.1,25.2,286.1,24.7z M284.8,26.7h-0.3v2.9h0.3c0.5,0,1-0.1,1.2-0.3
		s0.4-0.6,0.4-1.1c0-0.6-0.1-0.9-0.4-1.2C285.8,26.8,285.4,26.7,284.8,26.7z"/>
	<path class="st1" d="M296.4,27.9l0.7,0.1c-0.1,0.8-0.5,1.5-1,1.9c-0.5,0.5-1.2,0.7-2.1,0.7c-1.2,0-2.1-0.4-2.9-1.1
		c-0.7-0.8-1.1-1.7-1.1-3c0-1.2,0.4-2.2,1.1-2.9s1.8-1.1,3-1.1c0.9,0,1.5,0.2,2.1,0.5c0.5,0.4,0.8,1,0.8,1.8c0,0.4-0.1,0.7-0.3,0.9
		c-0.2,0.2-0.5,0.3-0.9,0.3c-0.4,0-0.7-0.1-1-0.3c-0.2-0.2-0.4-0.5-0.4-0.9c0-0.4,0.1-0.7,0.3-0.9c0.2-0.2,0.5-0.4,0.8-0.4
		c-0.1-0.1-0.2-0.2-0.4-0.3c-0.2-0.1-0.4-0.1-0.6-0.1c-0.3,0-0.6,0.1-0.8,0.2c-0.2,0.2-0.4,0.4-0.5,0.6c-0.1,0.2-0.2,0.5-0.3,0.9
		s-0.1,0.7-0.1,0.9c0,0.2,0,0.5,0,0.9c0,2.2,0.6,3.3,1.7,3.3C295.5,29.7,296.1,29.1,296.4,27.9z"/>
	<path class="st1" d="M305.4,30.6c-0.6,0-1.1-0.2-1.5-0.5c-0.3-0.3-0.6-0.8-0.8-1.4c-0.1-0.6-0.2-1-0.3-1.3
		c-0.1-0.3-0.2-0.4-0.4-0.5c-0.2-0.1-0.4-0.1-0.6-0.1h-0.2v2.9h0.9v0.7h-4.6v-0.7h1v-6.3h-1v-0.7h4.6v0.7h-0.9v2.7h0.5
		c0.2,0,0.4-0.1,0.6-0.3s0.3-0.6,0.5-1.2c0.1-0.4,0.2-0.8,0.3-1c0.3-0.8,0.9-1.2,1.8-1.2c0.5,0,0.8,0.1,1.1,0.4
		c0.3,0.2,0.4,0.6,0.4,1c0,0.4-0.1,0.7-0.3,0.9c-0.2,0.2-0.5,0.4-0.8,0.4c-0.4,0-0.7-0.1-0.9-0.3c-0.2-0.2-0.3-0.5-0.3-0.9
		c0-0.1,0-0.2,0.1-0.3c0-0.1,0.1-0.2,0.1-0.3c-0.1,0.1-0.2,0.2-0.3,0.3c-0.1,0.2-0.2,0.5-0.3,0.9c-0.1,0.6-0.3,1-0.4,1.2
		c-0.1,0.2-0.3,0.4-0.5,0.5c0.8,0.2,1.5,0.4,1.9,0.7c0.3,0.2,0.5,0.4,0.7,0.6s0.2,0.6,0.4,1c0.1,0.5,0.2,0.7,0.3,0.8
		c0.1,0.1,0.1,0.1,0.2,0.1c0.1,0,0.2-0.1,0.3-0.4s0.1-0.7,0.1-1.2h0.6c0,0.8-0.1,1.5-0.4,1.9C306.7,30.4,306.2,30.6,305.4,30.6z"/>
	<path class="st1" d="M311.6,28.8v0.9h0.8v0.7h-4.5v-0.7h1v-6.3h-1v-0.7h4.5v0.7h-0.8v4.3l2.4-3.4v-0.8h-0.8v-0.7h4.5v0.7h-1v6.3h1
		v0.7h-4.5v-0.7h0.8v-4.3L311.6,28.8z"/>
	<path class="st1" d="M322.2,28.8v0.9h0.8v0.7h-4.5v-0.7h1v-6.3h-1v-0.7h4.5v0.7h-0.8v4.3l2.4-3.4v-0.8h-0.8v-0.7h4.5v0.7h-1v6.3h1
		v0.7h-4.5v-0.7h0.8v-4.3L322.2,28.8z M325.1,18.3c0.3,0,0.6,0.1,0.8,0.3c0.2,0.2,0.3,0.5,0.3,0.8c0,0.7-0.3,1.3-0.8,1.7
		c-0.5,0.4-1.2,0.7-1.9,0.7s-1.4-0.2-1.9-0.7c-0.5-0.4-0.8-1-0.8-1.7c0-0.3,0.1-0.6,0.3-0.8c0.2-0.2,0.5-0.3,0.8-0.3
		c0.3,0,0.5,0.1,0.7,0.2c0.2,0.2,0.3,0.4,0.3,0.7s-0.1,0.5-0.3,0.7c-0.2,0.2-0.4,0.2-0.7,0.2c-0.2,0-0.4,0-0.6-0.1
		c0.5,0.4,1.2,0.6,2.3,0.6c1.1,0,1.9-0.2,2.4-0.6c-0.3,0.1-0.5,0.1-0.7,0.1c-0.3,0-0.5-0.1-0.7-0.2c-0.2-0.2-0.3-0.4-0.3-0.7
		c0-0.3,0.1-0.5,0.3-0.7C324.5,18.4,324.8,18.3,325.1,18.3z"/>
	<path class="st1" d="M337.5,29.7v0.7h-4.6v-0.7h1v-9.1h-1v-0.7h10.2v0.7h-1v9.1h1v0.7h-4.6v-0.7h0.8v-9.1h-2.6v9.1H337.5z"/>
	<path class="st1" d="M350.8,30.6c-1.2,0-1.9-0.6-2-1.9c-0.2,0.6-0.5,1.1-0.9,1.4c-0.5,0.3-1,0.5-1.7,0.5c-0.6,0-1.2-0.2-1.6-0.5
		c-0.4-0.3-0.7-0.8-0.7-1.4c0-0.4,0.1-0.8,0.3-1.1c0.2-0.3,0.5-0.6,0.9-0.7c0.4-0.2,0.8-0.3,1.1-0.4s0.7-0.2,1.2-0.2l1.1-0.2V25
		c0-1.2-0.5-1.8-1.6-1.8c-0.5,0-0.8,0.1-1.1,0.3c0.6,0.2,0.9,0.6,0.9,1.2c0,0.4-0.1,0.7-0.3,0.9c-0.2,0.2-0.5,0.3-0.9,0.3
		c-0.4,0-0.7-0.1-1-0.3s-0.4-0.5-0.4-0.9c0-0.4,0.1-0.8,0.4-1.1s0.6-0.5,1-0.7c0.4-0.2,0.8-0.3,1.2-0.4c0.4-0.1,0.8-0.1,1.2-0.1
		c0.4,0,0.8,0,1.2,0.1c0.4,0.1,0.7,0.2,1,0.4s0.6,0.4,0.8,0.8s0.3,0.7,0.3,1.2v4.1c0,0.2,0,0.4,0.1,0.5c0.1,0.1,0.2,0.2,0.3,0.2
		c0.4,0,0.6-0.5,0.6-1.5h0.6c0,0.8-0.1,1.5-0.4,1.9C352.1,30.4,351.6,30.6,350.8,30.6z M346.6,28.3c0,0.6,0.2,0.9,0.7,0.9
		c0.7,0,1.1-0.7,1.1-2v-0.5l-0.5,0.1c-0.4,0.1-0.8,0.3-1,0.5C346.8,27.5,346.6,27.9,346.6,28.3z"/>
	<path class="st1" d="M358.2,29.7h1.1v0.7h-5v-0.7h1.1v-6.3h-0.3c-1,0-1.5,0.6-1.5,1.9v0.3H353v-2.8h7.7v2.8H360v-0.3
		c0-1.2-0.5-1.9-1.5-1.9h-0.3V29.7z"/>
	<path class="st1" d="M365.1,29.7v3.7h1.8v0.7h-5.5v-0.7h1v-10h-1v-0.7c1.5,0,2.4-0.1,2.8-0.2l0.5,0.1v2.3c0.1-0.8,0.4-1.4,0.9-1.8
		c0.5-0.5,1.1-0.7,1.8-0.7c0.7,0,1.2,0.2,1.7,0.6s0.8,0.9,1,1.5c0.2,0.6,0.3,1.2,0.3,1.9c0,0.7-0.1,1.3-0.4,1.9
		c-0.2,0.6-0.6,1.1-1.1,1.6c-0.5,0.4-1.1,0.6-1.8,0.6C366.1,30.6,365.5,30.3,365.1,29.7z M366.3,29.7c0.4,0,0.7-0.2,0.9-0.7
		c0.2-0.4,0.3-1.2,0.3-2.3c0-1.1-0.1-1.9-0.3-2.4c-0.2-0.5-0.5-0.7-0.9-0.7c-0.8,0-1.2,0.9-1.2,2.7v1.1
		C365.1,28.9,365.5,29.7,366.3,29.7z"/>
	<path class="st1" d="M374.8,28.8v0.9h0.8v0.7h-4.5v-0.7h1v-6.3h-1v-0.7h4.5v0.7h-0.8v4.3l2.4-3.4v-0.8h-0.8v-0.7h4.5v0.7h-1v6.3h1
		v0.7h-4.5v-0.7h0.8v-4.3L374.8,28.8z"/>
	<path class="st1" d="M388.6,30.6c-1.2,0-1.9-0.6-2-1.9c-0.2,0.6-0.5,1.1-0.9,1.4c-0.5,0.3-1,0.5-1.7,0.5c-0.6,0-1.2-0.2-1.6-0.5
		c-0.4-0.3-0.7-0.8-0.7-1.4c0-0.4,0.1-0.8,0.3-1.1c0.2-0.3,0.5-0.6,0.9-0.7c0.4-0.2,0.8-0.3,1.1-0.4s0.7-0.2,1.2-0.2l1.1-0.2V25
		c0-1.2-0.5-1.8-1.6-1.8c-0.5,0-0.8,0.1-1.1,0.3c0.6,0.2,0.9,0.6,0.9,1.2c0,0.4-0.1,0.7-0.3,0.9c-0.2,0.2-0.5,0.3-0.9,0.3
		c-0.4,0-0.7-0.1-1-0.3s-0.4-0.5-0.4-0.9c0-0.4,0.1-0.8,0.4-1.1s0.6-0.5,1-0.7c0.4-0.2,0.8-0.3,1.2-0.4c0.4-0.1,0.8-0.1,1.2-0.1
		c0.4,0,0.8,0,1.2,0.1c0.4,0.1,0.7,0.2,1,0.4s0.6,0.4,0.8,0.8s0.3,0.7,0.3,1.2v4.1c0,0.2,0,0.4,0.1,0.5c0.1,0.1,0.2,0.2,0.3,0.2
		c0.4,0,0.6-0.5,0.6-1.5h0.6c0,0.8-0.1,1.5-0.4,1.9C389.9,30.4,389.4,30.6,388.6,30.6z M384.5,28.3c0,0.6,0.2,0.9,0.7,0.9
		c0.7,0,1.1-0.7,1.1-2v-0.5l-0.5,0.1c-0.4,0.1-0.8,0.3-1,0.5C384.6,27.5,384.5,27.9,384.5,28.3z"/>
	<path class="st1" d="M394.8,29.7v3.7h1.8v0.7h-5.5v-0.7h1v-10h-1v-0.7c1.5,0,2.4-0.1,2.8-0.2l0.5,0.1v2.3c0.1-0.8,0.4-1.4,0.9-1.8
		c0.5-0.5,1.1-0.7,1.8-0.7c0.7,0,1.2,0.2,1.7,0.6s0.8,0.9,1,1.5c0.2,0.6,0.3,1.2,0.3,1.9c0,0.7-0.1,1.3-0.4,1.9
		c-0.2,0.6-0.6,1.1-1.1,1.6c-0.5,0.4-1.1,0.6-1.8,0.6C395.8,30.6,395.2,30.3,394.8,29.7z M396,29.7c0.4,0,0.7-0.2,0.9-0.7
		c0.2-0.4,0.3-1.2,0.3-2.3c0-1.1-0.1-1.9-0.3-2.4c-0.2-0.5-0.5-0.7-0.9-0.7c-0.8,0-1.2,0.9-1.2,2.7v1.1
		C394.8,28.9,395.2,29.7,396,29.7z"/>
	<path class="st1" d="M403.5,29.7v0.7h-3v-0.7h1l2.2-2.9l-2.3-3.4h-0.7v-0.7h4.1v0.7H404l1.3,2l1.4-2h-0.9v-0.7h2.8v0.7h-0.9l-2,2.6
		l2.6,3.7h0.7v0.7h-4.2v-0.7h0.8l-1.5-2.2l-1.6,2.2H403.5z"/>
	<path class="st1" d="M416.3,30.6c-1.2,0-1.9-0.6-2-1.9c-0.2,0.6-0.5,1.1-0.9,1.4c-0.5,0.3-1,0.5-1.7,0.5c-0.6,0-1.2-0.2-1.6-0.5
		c-0.4-0.3-0.7-0.8-0.7-1.4c0-0.4,0.1-0.8,0.3-1.1c0.2-0.3,0.5-0.6,0.9-0.7c0.4-0.2,0.8-0.3,1.1-0.4s0.7-0.2,1.2-0.2l1.1-0.2V25
		c0-1.2-0.5-1.8-1.6-1.8c-0.5,0-0.8,0.1-1.1,0.3c0.6,0.2,0.9,0.6,0.9,1.2c0,0.4-0.1,0.7-0.3,0.9c-0.2,0.2-0.5,0.3-0.9,0.3
		c-0.4,0-0.7-0.1-1-0.3s-0.4-0.5-0.4-0.9c0-0.4,0.1-0.8,0.4-1.1s0.6-0.5,1-0.7c0.4-0.2,0.8-0.3,1.2-0.4c0.4-0.1,0.8-0.1,1.2-0.1
		c0.4,0,0.8,0,1.2,0.1c0.4,0.1,0.7,0.2,1,0.4s0.6,0.4,0.8,0.8s0.3,0.7,0.3,1.2v4.1c0,0.2,0,0.4,0.1,0.5c0.1,0.1,0.2,0.2,0.3,0.2
		c0.4,0,0.6-0.5,0.6-1.5h0.6c0,0.8-0.1,1.5-0.4,1.9C417.6,30.4,417.1,30.6,416.3,30.6z M412.1,28.3c0,0.6,0.2,0.9,0.7,0.9
		c0.7,0,1.1-0.7,1.1-2v-0.5l-0.5,0.1c-0.4,0.1-0.8,0.3-1,0.5C412.2,27.5,412.1,27.9,412.1,28.3z"/>
	<path class="st1" d="M423.7,29.7h1.1v0.7h-5v-0.7h1.1v-6.3h-0.3c-1,0-1.5,0.6-1.5,1.9v0.3h-0.7v-2.8h7.7v2.8h-0.7v-0.3
		c0-1.2-0.5-1.9-1.5-1.9h-0.3V29.7z"/>
</g>
<g class="st0">
	<path class="st2" d="M68.7,73.6c-2,0-3.9-0.3-5.7-1c-1.8-0.7-3.3-1.6-4.6-2.9c-1.3-1.2-2.3-2.7-3-4.6c-0.7-1.8-1.1-3.8-1.1-6
		c0-2.2,0.4-4.1,1.1-6s1.8-3.4,3.1-4.8c1.3-1.3,2.9-2.3,4.8-3.1c1.9-0.7,3.8-1.1,6-1.1c1.5,0,2.9,0.2,4.2,0.6
		c1.3,0.4,2.3,0.8,3.2,1.3l1.2-1.1h1.7l0.2,10.1H78c-1-3.1-2.1-5.4-3.5-6.8s-3-2.2-5-2.2c-2.4,0-4.3,1.1-5.6,3.2
		c-1.3,2.2-1.9,5.2-1.9,9.1c0,2.2,0.2,4.1,0.7,5.6c0.4,1.6,1,2.8,1.7,3.8c0.8,1,1.6,1.7,2.7,2.2c1,0.5,2.2,0.7,3.4,0.7
		c1.8,0,3.4-0.5,4.9-1.5s2.7-2.5,3.9-4.5l1.7,1c-0.6,1.1-1.2,2.2-1.9,3.1c-0.7,0.9-1.5,1.7-2.5,2.3c-1,0.7-2.2,1.3-3.4,1.7
		S70.4,73.6,68.7,73.6z"/>
	<path class="st2" d="M116.8,72.8H102v-1.5c0.3,0,0.8-0.1,1.4-0.1s1.1-0.1,1.3-0.2c0.5-0.2,0.8-0.5,1-0.8c0.2-0.3,0.3-0.7,0.3-1.2
		V52.7L93.5,68.2c0,0.9,0.1,1.5,0.3,1.8c0.2,0.3,0.5,0.5,1,0.8c0.3,0.1,0.7,0.2,1.3,0.3c0.6,0.1,1.1,0.2,1.4,0.2v1.5H82.7v-1.5
		c0.3,0,0.8-0.1,1.4-0.1c0.6-0.1,1.1-0.2,1.4-0.3c0.5-0.2,0.8-0.4,1-0.8c0.2-0.3,0.3-0.8,0.3-1.2V49.3c0-0.5-0.1-0.8-0.2-1.2
		c-0.2-0.3-0.5-0.6-1-0.8c-0.4-0.2-0.9-0.3-1.5-0.5s-1.1-0.2-1.3-0.2V45h14.8v1.5c-0.4,0-0.9,0.1-1.4,0.2c-0.6,0.1-1,0.2-1.3,0.3
		c-0.5,0.2-0.8,0.4-1,0.8c-0.2,0.4-0.2,0.8-0.2,1.2v15.9L106,49.4c0-0.7-0.1-1.2-0.3-1.4c-0.2-0.3-0.5-0.5-1-0.7
		c-0.4-0.2-0.8-0.3-1.4-0.4s-1-0.2-1.3-0.3V45h14.8v1.5c-0.4,0-0.9,0.1-1.4,0.2c-0.5,0.1-1,0.2-1.4,0.3c-0.5,0.2-0.8,0.4-1,0.8
		c-0.2,0.4-0.3,0.8-0.3,1.2v19.6c0,0.5,0.1,0.9,0.3,1.2c0.2,0.3,0.5,0.6,1,0.8c0.3,0.1,0.8,0.2,1.4,0.4c0.6,0.1,1.1,0.2,1.5,0.2
		V72.8z"/>
	<path class="st2" d="M157.4,72.8h-15v-1.5c0.4,0,1-0.1,1.6-0.2c0.6-0.1,1.1-0.2,1.3-0.3c0.5-0.2,0.8-0.5,1-0.8
		c0.2-0.3,0.3-0.8,0.3-1.3V48l-9.5,24.4h-2.5c-0.1-0.4-0.4-1.3-0.9-2.6c-0.5-1.3-0.8-2.3-1.1-3.1l-7-19.1v16.9
		c0,1.6,0.1,2.8,0.3,3.7c0.2,0.8,0.6,1.5,1,1.8c0.3,0.3,0.9,0.5,1.7,0.8c0.8,0.2,1.4,0.4,1.8,0.4v1.5h-11.9v-1.5
		c0.3,0,0.9-0.1,1.6-0.3c0.7-0.1,1.3-0.4,1.8-0.7c0.5-0.4,0.9-1,1.1-1.8c0.2-0.9,0.3-2.1,0.3-3.7V51c0-0.8-0.1-1.5-0.3-2.1
		c-0.2-0.6-0.5-1-0.9-1.3c-0.5-0.4-1.1-0.7-1.6-0.8s-1.1-0.2-1.7-0.2V45h12.7l6.8,18.3l5.7-14.8c0.2-0.5,0.4-1.2,0.6-2
		c0.2-0.8,0.3-1.3,0.3-1.5h12.2v1.5c-0.4,0-0.9,0.1-1.3,0.2c-0.5,0.1-0.9,0.2-1.3,0.3c-0.5,0.2-0.8,0.4-1,0.8
		c-0.2,0.4-0.2,0.8-0.2,1.2v19.6c0,0.5,0.1,0.9,0.2,1.2c0.2,0.3,0.5,0.6,1,0.8c0.3,0.1,0.7,0.2,1.3,0.3c0.6,0.1,1,0.2,1.4,0.2V72.8z
		"/>
	<path class="st2" d="M187.4,64.5c0,1.4-0.3,2.6-0.9,3.7c-0.6,1.1-1.4,2-2.5,2.7c-1,0.7-2.1,1.2-3.3,1.5c-1.2,0.3-2.5,0.5-3.8,0.5
		h-16.6v-1.5c0.4,0,0.9-0.1,1.5-0.2c0.6-0.1,1.1-0.2,1.3-0.3c0.5-0.2,0.8-0.4,1-0.8c0.2-0.3,0.3-0.7,0.3-1.3V49.3
		c0-0.4-0.1-0.8-0.2-1.2c-0.2-0.3-0.5-0.6-1-0.8c-0.4-0.2-0.8-0.3-1.4-0.4c-0.6-0.1-1.1-0.2-1.4-0.3V45H185V53h-1.5
		c-0.6-1.5-1.3-2.8-2.2-4c-0.9-1.2-1.6-1.8-2.3-1.9c-0.4-0.1-0.9-0.1-1.4-0.2s-1.1-0.1-1.7-0.1h-4.6v9.9c0.6,0,1.3,0,2-0.1
		c0.7,0,1.4,0,2.1,0c1.7,0,3.3,0.1,4.7,0.4c1.4,0.3,2.7,0.7,3.8,1.4c1.1,0.6,2,1.4,2.6,2.4C187.1,61.8,187.4,63,187.4,64.5z
		 M179.7,64.8c0-2-0.6-3.5-1.7-4.6c-1.1-1.1-2.8-1.6-4.9-1.6c-0.2,0-0.6,0-1,0s-0.7,0-0.9,0v10.7c0.1,0.5,0.5,0.9,1.1,1.2
		s1.3,0.5,2.2,0.5c1.5,0,2.8-0.6,3.7-1.7S179.7,66.7,179.7,64.8z"/>
	<path class="st2" d="M224.1,72.8h-14.8v-1.5c0.3,0,0.8-0.1,1.4-0.1s1.1-0.1,1.3-0.2c0.5-0.2,0.8-0.5,1-0.8c0.2-0.3,0.3-0.7,0.3-1.2
		V52.7l-12.4,15.5c0,0.9,0.1,1.5,0.3,1.8c0.2,0.3,0.5,0.5,1,0.8c0.3,0.1,0.7,0.2,1.3,0.3c0.6,0.1,1.1,0.2,1.4,0.2v1.5h-14.8v-1.5
		c0.3,0,0.8-0.1,1.4-0.1c0.6-0.1,1.1-0.2,1.4-0.3c0.5-0.2,0.8-0.4,1-0.8c0.2-0.3,0.3-0.8,0.3-1.2V49.3c0-0.5-0.1-0.8-0.2-1.2
		c-0.2-0.3-0.5-0.6-1-0.8c-0.4-0.2-0.9-0.3-1.5-0.5s-1.1-0.2-1.3-0.2V45h14.8v1.5c-0.4,0-0.9,0.1-1.4,0.2c-0.6,0.1-1,0.2-1.3,0.3
		c-0.5,0.2-0.8,0.4-1,0.8c-0.2,0.4-0.2,0.8-0.2,1.2v15.9l12.4-15.5c0-0.7-0.1-1.2-0.3-1.4c-0.2-0.3-0.5-0.5-1-0.7
		c-0.4-0.2-0.8-0.3-1.4-0.4s-1-0.2-1.3-0.3V45h14.8v1.5c-0.4,0-0.9,0.1-1.4,0.2c-0.5,0.1-1,0.2-1.4,0.3c-0.5,0.2-0.8,0.4-1,0.8
		c-0.2,0.4-0.3,0.8-0.3,1.2v19.6c0,0.5,0.1,0.9,0.3,1.2c0.2,0.3,0.5,0.6,1,0.8c0.3,0.1,0.8,0.2,1.4,0.4c0.6,0.1,1.1,0.2,1.5,0.2
		V72.8z"/>
	<path class="st2" d="M252.7,52c0,1.6-0.3,2.9-1,4s-1.5,2-2.7,2.7c-1.2,0.7-2.5,1.3-4,1.6c-1.5,0.3-3.2,0.5-5.1,0.5h-2.3v7.8
		c0,0.5,0.1,0.9,0.3,1.2s0.5,0.6,1,0.8c0.3,0.1,0.7,0.2,1.3,0.3c0.6,0.1,1.1,0.2,1.5,0.2v1.5h-15v-1.5c0.4,0,0.9-0.1,1.5-0.2
		c0.6-0.1,1.1-0.2,1.3-0.3c0.5-0.2,0.8-0.5,1-0.8c0.2-0.3,0.2-0.7,0.2-1.3V49.3c0-0.5-0.1-0.9-0.2-1.2c-0.2-0.3-0.5-0.6-1-0.8
		c-0.4-0.2-0.8-0.3-1.5-0.4c-0.6-0.1-1.1-0.2-1.4-0.2V45h15.2c3.6,0,6.2,0.6,8,1.7C251.8,47.9,252.7,49.6,252.7,52z M245.1,53
		c0-2.1-0.4-3.6-1.3-4.6c-0.8-1-2.3-1.5-4.5-1.5h-1.6V59h0.8c2.1,0,3.7-0.5,4.9-1.5S245.1,55,245.1,53z"/>
	<path class="st2" d="M269.3,73.6c-2,0-3.9-0.3-5.7-1c-1.8-0.7-3.3-1.6-4.6-2.9c-1.3-1.2-2.3-2.7-3-4.6c-0.7-1.8-1.1-3.8-1.1-6
		c0-2.2,0.4-4.1,1.1-6s1.8-3.4,3.1-4.8c1.3-1.3,2.9-2.3,4.8-3.1c1.9-0.7,3.8-1.1,6-1.1c1.5,0,2.9,0.2,4.2,0.6
		c1.3,0.4,2.3,0.8,3.2,1.3l1.2-1.1h1.7l0.2,10.1h-1.7c-1-3.1-2.1-5.4-3.5-6.8s-3-2.2-5-2.2c-2.4,0-4.3,1.1-5.6,3.2
		c-1.3,2.2-1.9,5.2-1.9,9.1c0,2.2,0.2,4.1,0.7,5.6c0.4,1.6,1,2.8,1.7,3.8c0.8,1,1.6,1.7,2.7,2.2c1,0.5,2.2,0.7,3.4,0.7
		c1.8,0,3.4-0.5,4.9-1.5s2.7-2.5,3.9-4.5l1.7,1c-0.6,1.1-1.2,2.2-1.9,3.1c-0.7,0.9-1.5,1.7-2.5,2.3c-1,0.7-2.2,1.3-3.4,1.7
		S271,73.6,269.3,73.6z"/>
	<path class="st2" d="M314.3,72.8h-10.6c-0.5-1.3-0.9-2.7-1.4-4c-0.5-1.3-0.9-2.6-1.4-3.7c-0.4-0.8-0.7-1.6-1.1-2.2
		c-0.4-0.6-0.8-1.1-1.3-1.5c-0.5-0.4-1.1-0.7-1.8-0.9c-0.7-0.2-1.5-0.3-2.5-0.3v8.6c0,0.4,0.1,0.8,0.3,1.2c0.2,0.4,0.5,0.6,1,0.8
		c0.2,0.1,0.7,0.2,1.3,0.3c0.6,0.1,1.1,0.2,1.5,0.2v1.5h-14.9v-1.5c0.3,0,0.8-0.1,1.4-0.1c0.6-0.1,1.1-0.2,1.4-0.3
		c0.5-0.2,0.8-0.4,1-0.8c0.2-0.3,0.3-0.8,0.3-1.2V49.3c0-0.5-0.1-0.8-0.2-1.2c-0.2-0.3-0.5-0.6-1-0.8c-0.4-0.2-0.9-0.3-1.5-0.5
		s-1.1-0.2-1.3-0.2V45h14.9v1.5c-0.4,0-0.9,0.1-1.4,0.2c-0.6,0.1-1,0.2-1.3,0.3c-0.5,0.2-0.8,0.4-1,0.8s-0.2,0.8-0.2,1.2v9.2h1.3
		c0.5,0,1.1-0.1,1.6-0.2s1.1-0.5,1.5-0.9c0.9-0.9,1.6-1.9,2.1-2.8c0.5-0.9,0.9-1.9,1.2-2.9c0.4-1.1,0.7-2,1-2.8
		c0.3-0.8,0.9-1.6,1.8-2.5c0.5-0.5,1-0.8,1.7-1.1s1.4-0.4,2.2-0.4c1.3,0,2.3,0.3,3.1,1s1.1,1.5,1.1,2.5c0,1.1-0.3,2-1,2.6
		c-0.6,0.6-1.4,0.9-2.4,0.9c-0.6,0-1.2-0.2-1.8-0.5s-1.3-1.1-2.1-2.1c-0.4,0.4-0.7,1-1,1.9c-0.3,0.8-0.6,1.6-0.8,2.2
		c-0.5,1.3-1,2.3-1.5,2.9c-0.5,0.7-1,1.2-1.7,1.7v0.4c1.8,0.5,3.3,1.3,4.5,2.4s2.2,2.5,2.9,4c0.3,0.7,0.7,1.4,1,2.2
		c0.3,0.8,0.6,1.4,0.9,2c0.4,0.8,0.8,1.4,1.2,1.7c0.4,0.3,0.7,0.4,0.9,0.5c0.3,0.1,0.7,0.1,1.1,0.2s0.8,0.1,1.1,0.1V72.8z"/>
	<path class="st2" d="M345.2,72.8h-15.1v-1.5c0.7-0.1,1.5-0.2,2.5-0.4c0.9-0.2,1.4-0.5,1.4-0.8c0-0.1,0-0.2,0-0.4
		c0-0.1-0.1-0.3-0.2-0.5l-2.4-5.7h-9.5c-0.2,0.5-0.5,1.2-0.7,1.9s-0.5,1.4-0.7,1.9c-0.2,0.7-0.4,1.3-0.4,1.6c0,0.3-0.1,0.6-0.1,0.7
		c0,0.4,0.3,0.8,0.9,1.1c0.6,0.3,1.7,0.5,3.1,0.6v1.5h-11.3v-1.5c0.4,0,0.9-0.1,1.5-0.2c0.5-0.1,1-0.3,1.3-0.5
		c0.5-0.3,1-0.7,1.4-1.2c0.4-0.5,0.7-1,0.9-1.6c1.5-3.7,3-7.3,4.5-11s3.2-7.7,5-12.2h3.9c2.5,6.3,4.5,11.2,6,14.9
		c1.4,3.6,2.7,6.7,3.7,9.1c0.2,0.4,0.4,0.7,0.6,1.1s0.6,0.6,1.1,0.9c0.4,0.2,0.8,0.4,1.3,0.5c0.5,0.1,0.9,0.2,1.3,0.2V72.8z
		 M330.7,61.6l-4-10l-3.9,10H330.7z"/>
	<path class="st2" d="M374.4,72.8h-14.9v-1.5c0.3,0,0.8-0.1,1.4-0.1c0.6-0.1,1.1-0.1,1.3-0.2c0.5-0.2,0.8-0.5,1-0.8
		c0.2-0.3,0.3-0.7,0.3-1.2v-8.6H362c-1.1,0-2,0.3-2.7,1s-1.5,1.9-2.4,3.8c-0.5,1.2-1,2.4-1.5,3.6c-0.5,1.2-0.9,2.6-1.5,4h-10.4v-1.5
		c0.3,0,0.6-0.1,1-0.1c0.4,0,0.8-0.1,1.1-0.2c0.7-0.2,1.2-0.5,1.5-0.8c0.3-0.4,0.6-0.8,0.9-1.3c0.3-0.7,0.7-1.5,1-2.3
		c0.4-0.8,0.8-1.6,1.2-2.4c0.5-1,1.2-1.9,2.1-2.7c0.9-0.8,2.1-1.4,3.6-1.9v-0.4c-1.1-0.2-2.1-0.4-3-0.7c-0.9-0.3-1.6-0.8-2.3-1.3
		c-0.7-0.5-1.2-1.2-1.6-2.1c-0.4-0.8-0.6-1.8-0.6-2.9c0-1.2,0.3-2.3,0.8-3.2c0.6-0.9,1.3-1.6,2.1-2.2c0.9-0.6,1.9-1,3.1-1.3
		c1.2-0.3,2.4-0.5,3.7-0.5h16.3v1.5c-0.4,0-0.9,0.1-1.4,0.2c-0.5,0.1-1,0.2-1.4,0.3c-0.5,0.2-0.8,0.4-1,0.8
		c-0.2,0.4-0.3,0.8-0.3,1.2v19.6c0,0.5,0.1,0.9,0.3,1.2c0.2,0.3,0.5,0.6,1,0.8c0.3,0.1,0.8,0.2,1.4,0.4c0.6,0.1,1.1,0.2,1.5,0.2
		V72.8z M363.4,58.5V46.8h-2.9c-1.5,0-2.6,0.5-3.4,1.5c-0.8,1-1.2,2.4-1.2,4.1c0,2,0.5,3.5,1.4,4.5c1,1,2.3,1.5,3.9,1.5H363.4z"/>
	<path class="st2" d="M411.7,52.1h-1.5c-0.4-1.1-1-2.1-1.9-3.2c-0.9-1.1-1.8-1.7-2.7-1.9c-0.4-0.1-0.9-0.1-1.6-0.2s-1.3,0-1.7,0h-4
		v10.7h2.8c0.7,0,1.4-0.1,1.9-0.3c0.6-0.2,1.1-0.5,1.6-1c0.3-0.3,0.6-0.8,0.9-1.6c0.3-0.8,0.5-1.4,0.6-2h1.5v11.6H406
		c-0.1-0.5-0.3-1.2-0.6-2.1c-0.3-0.8-0.6-1.4-0.9-1.7c-0.4-0.5-0.9-0.8-1.5-1c-0.6-0.2-1.3-0.3-2-0.3h-2.8v8c0,0.8,0.1,1.5,0.2,2
		c0.1,0.5,0.4,0.9,0.7,1.1c0.3,0.2,0.8,0.4,1.3,0.5c0.6,0.1,1.3,0.1,2.3,0.1c0.5,0,1,0,1.6,0c0.6,0,1.2-0.1,1.7-0.1
		c0.5-0.1,1.1-0.2,1.5-0.3s0.8-0.3,1.1-0.6c0.6-0.6,1.3-1.6,2.1-2.9c0.8-1.3,1.3-2.3,1.5-2.9h1.4l-0.5,8.6h-25.9v-1.5
		c0.4,0,0.9-0.1,1.5-0.2s1.1-0.2,1.3-0.3c0.5-0.2,0.8-0.5,1-0.8c0.2-0.3,0.3-0.7,0.3-1.2V49.3c0-0.5-0.1-0.9-0.2-1.2
		c-0.1-0.3-0.5-0.6-1-0.8c-0.3-0.2-0.8-0.3-1.4-0.4c-0.6-0.1-1.1-0.2-1.4-0.3V45h24.5V52.1z"/>
	<path class="st2" d="M449.1,72.8h-14.8v-1.5c0.3,0,0.8-0.1,1.4-0.1c0.6-0.1,1-0.1,1.2-0.2c0.5-0.2,0.8-0.5,1-0.8
		c0.2-0.3,0.3-0.7,0.3-1.2V47.1h-11.3v21.6c0,0.4,0.1,0.8,0.3,1.2c0.2,0.4,0.5,0.6,1,0.8c0.2,0.1,0.6,0.2,1.2,0.3
		c0.6,0.1,1,0.2,1.4,0.2v1.5h-14.8v-1.5c0.3,0,0.8-0.1,1.4-0.1c0.6-0.1,1.1-0.2,1.4-0.3c0.5-0.2,0.8-0.4,1-0.8
		c0.2-0.3,0.3-0.8,0.3-1.2V49.3c0-0.5-0.1-0.8-0.2-1.2c-0.2-0.3-0.5-0.6-1-0.8c-0.4-0.2-0.9-0.3-1.5-0.5c-0.6-0.1-1.1-0.2-1.3-0.2
		V45h33.2v1.5c-0.4,0-0.9,0.1-1.4,0.2c-0.5,0.1-1,0.2-1.4,0.3c-0.5,0.2-0.8,0.4-1,0.8c-0.2,0.4-0.3,0.8-0.3,1.2v19.6
		c0,0.5,0.1,0.9,0.3,1.2c0.2,0.3,0.5,0.6,1,0.8c0.3,0.1,0.8,0.2,1.4,0.4c0.6,0.1,1.1,0.2,1.5,0.2V72.8z"/>
	<path class="st2" d="M481.8,72.8h-15.1v-1.5c0.7-0.1,1.5-0.2,2.5-0.4c0.9-0.2,1.4-0.5,1.4-0.8c0-0.1,0-0.2,0-0.4
		c0-0.1-0.1-0.3-0.2-0.5l-2.4-5.7h-9.5c-0.2,0.5-0.5,1.2-0.7,1.9s-0.5,1.4-0.7,1.9c-0.2,0.7-0.4,1.3-0.4,1.6c0,0.3-0.1,0.6-0.1,0.7
		c0,0.4,0.3,0.8,0.9,1.1c0.6,0.3,1.7,0.5,3.1,0.6v1.5h-11.3v-1.5c0.4,0,0.9-0.1,1.5-0.2c0.5-0.1,1-0.3,1.3-0.5
		c0.5-0.3,1-0.7,1.4-1.2c0.4-0.5,0.7-1,0.9-1.6c1.5-3.7,3-7.3,4.5-11c1.5-3.7,3.2-7.7,5-12.2h3.9c2.5,6.3,4.5,11.2,6,14.9
		c1.4,3.6,2.7,6.7,3.7,9.1c0.2,0.4,0.4,0.7,0.6,1.1s0.6,0.6,1.1,0.9c0.4,0.2,0.8,0.4,1.3,0.5c0.5,0.1,0.9,0.2,1.3,0.2V72.8z
		 M467.3,61.6l-4-10l-3.9,10H467.3z"/>
	<path class="st2" d="M508,52c0,1.6-0.3,2.9-1,4s-1.5,2-2.7,2.7c-1.2,0.7-2.5,1.3-4,1.6c-1.5,0.3-3.2,0.5-5.1,0.5H493v7.8
		c0,0.5,0.1,0.9,0.3,1.2c0.2,0.3,0.5,0.6,1,0.8c0.3,0.1,0.7,0.2,1.3,0.3c0.6,0.1,1.1,0.2,1.5,0.2v1.5h-15v-1.5
		c0.4,0,0.9-0.1,1.5-0.2c0.6-0.1,1.1-0.2,1.3-0.3c0.5-0.2,0.8-0.5,1-0.8c0.2-0.3,0.2-0.7,0.2-1.3V49.3c0-0.5-0.1-0.9-0.2-1.2
		c-0.2-0.3-0.5-0.6-1-0.8c-0.4-0.2-0.8-0.3-1.5-0.4c-0.6-0.1-1.1-0.2-1.4-0.2V45h15.2c3.6,0,6.2,0.6,8,1.7
		C507.1,47.9,508,49.6,508,52z M500.4,53c0-2.1-0.4-3.6-1.3-4.6c-0.8-1-2.3-1.5-4.5-1.5H493V59h0.8c2.1,0,3.7-0.5,4.9-1.5
		C499.8,56.5,500.4,55,500.4,53z"/>
	<path class="st2" d="M541,72.8h-16.8v-1.5c1.6-0.1,2.7-0.2,3.1-0.4c0.5-0.2,0.7-0.4,0.7-0.8c0-0.2-0.1-0.4-0.3-0.8
		s-0.4-0.8-0.7-1.3c-0.5-0.8-1.1-1.7-1.8-2.9c-0.8-1.2-1.5-2.3-2.4-3.6c-2.7,3.2-4.5,5.3-5.2,6.3c-0.7,1-1.1,1.7-1.1,2.1
		c0,0.2,0,0.3,0.1,0.5c0.1,0.1,0.2,0.2,0.5,0.4c0.2,0.1,0.5,0.2,0.9,0.3c0.4,0.1,1,0.2,1.6,0.2v1.5h-10.7v-1.5c0.6,0,1-0.1,1.3-0.2
		c0.3-0.1,0.7-0.2,1-0.3c0.8-0.4,1.4-0.8,2-1.3c0.6-0.5,1.2-1.2,1.8-1.9c0.9-1,1.9-2.2,3.1-3.5c1.1-1.3,2.3-2.7,3.6-4.2
		c-1.2-1.8-2.4-3.6-3.6-5.3c-1.2-1.7-2.2-3.2-3-4.4c-0.4-0.6-0.9-1.2-1.5-1.8c-0.6-0.6-1.3-1-1.9-1.3c-0.3-0.1-0.7-0.3-1.1-0.4
		c-0.4-0.1-0.9-0.2-1.5-0.2V45h16.9v1.5c-1.3,0.1-2.3,0.2-2.9,0.4c-0.6,0.2-0.9,0.5-0.9,0.8c0,0.2,0.1,0.4,0.2,0.7
		c0.1,0.3,0.4,0.7,0.7,1.3c0.3,0.5,0.8,1.3,1.5,2.3c0.7,1,1.4,2.1,2.2,3.4c2.4-2.9,4-4.8,4.6-5.7c0.6-0.9,0.9-1.5,0.9-1.8
		c0-0.4-0.2-0.7-0.5-0.9c-0.4-0.2-1.2-0.3-2.5-0.5V45h10.8v1.5c-0.5,0-0.9,0.1-1.2,0.1s-0.7,0.2-1.1,0.4c-0.8,0.4-1.5,0.8-2,1.3
		c-0.5,0.5-1.1,1.2-1.8,1.9c-1,1.1-1.9,2.1-2.8,3.1c-0.9,1-2,2.2-3.2,3.7c1.6,2.4,2.9,4.4,4,6c1.1,1.6,2.2,3.1,3.2,4.5
		c0.4,0.6,0.9,1.2,1.5,1.8c0.6,0.6,1.3,1,1.9,1.3c0.3,0.1,0.7,0.2,1.1,0.3c0.4,0.1,0.9,0.2,1.6,0.2V72.8z"/>
	<path class="st2" d="M576.3,72.8h-14.8v-1.5c0.3,0,0.8-0.1,1.4-0.1s1.1-0.1,1.3-0.2c0.5-0.2,0.8-0.5,1-0.8c0.2-0.3,0.3-0.7,0.3-1.2
		V52.7l-12.4,15.5c0,0.9,0.1,1.5,0.3,1.8c0.2,0.3,0.5,0.5,1,0.8c0.3,0.1,0.7,0.2,1.3,0.3c0.6,0.1,1.1,0.2,1.4,0.2v1.5h-14.8v-1.5
		c0.3,0,0.8-0.1,1.4-0.1c0.6-0.1,1.1-0.2,1.4-0.3c0.5-0.2,0.8-0.4,1-0.8c0.2-0.3,0.3-0.8,0.3-1.2V49.3c0-0.5-0.1-0.8-0.2-1.2
		c-0.2-0.3-0.5-0.6-1-0.8c-0.4-0.2-0.9-0.3-1.5-0.5c-0.6-0.1-1.1-0.2-1.3-0.2V45h14.8v1.5c-0.4,0-0.9,0.1-1.4,0.2
		c-0.6,0.1-1,0.2-1.3,0.3c-0.5,0.2-0.8,0.4-1,0.8s-0.2,0.8-0.2,1.2v15.9l12.4-15.5c0-0.7-0.1-1.2-0.3-1.4c-0.2-0.3-0.5-0.5-1-0.7
		c-0.4-0.2-0.8-0.3-1.4-0.4s-1-0.2-1.3-0.3V45h14.8v1.5c-0.4,0-0.9,0.1-1.4,0.2c-0.5,0.1-1,0.2-1.4,0.3c-0.5,0.2-0.8,0.4-1,0.8
		c-0.2,0.4-0.3,0.8-0.3,1.2v19.6c0,0.5,0.1,0.9,0.3,1.2c0.2,0.3,0.5,0.6,1,0.8c0.3,0.1,0.8,0.2,1.4,0.4c0.6,0.1,1.1,0.2,1.5,0.2
		V72.8z"/>
	<path class="st2" d="M607.9,72.8H593v-1.5c0.3,0,0.8-0.1,1.4-0.1c0.6-0.1,1.1-0.1,1.3-0.2c0.5-0.2,0.8-0.5,1-0.8
		c0.2-0.3,0.3-0.7,0.3-1.2v-8.6h-1.4c-1.1,0-2,0.3-2.7,1s-1.5,1.9-2.4,3.8c-0.5,1.2-1,2.4-1.5,3.6c-0.5,1.2-0.9,2.6-1.5,4h-10.4
		v-1.5c0.3,0,0.6-0.1,1-0.1c0.4,0,0.8-0.1,1.1-0.2c0.7-0.2,1.2-0.5,1.5-0.8c0.3-0.4,0.6-0.8,0.9-1.3c0.3-0.7,0.7-1.5,1-2.3
		c0.4-0.8,0.8-1.6,1.2-2.4c0.5-1,1.2-1.9,2.1-2.7c0.9-0.8,2.1-1.4,3.6-1.9v-0.4c-1.1-0.2-2.1-0.4-3-0.7c-0.9-0.3-1.6-0.8-2.3-1.3
		c-0.7-0.5-1.2-1.2-1.6-2.1c-0.4-0.8-0.6-1.8-0.6-2.9c0-1.2,0.3-2.3,0.8-3.2c0.6-0.9,1.3-1.6,2.1-2.2c0.9-0.6,1.9-1,3.1-1.3
		c1.2-0.3,2.4-0.5,3.7-0.5h16.3v1.5c-0.4,0-0.9,0.1-1.4,0.2c-0.5,0.1-1,0.2-1.4,0.3c-0.5,0.2-0.8,0.4-1,0.8
		c-0.2,0.4-0.3,0.8-0.3,1.2v19.6c0,0.5,0.1,0.9,0.3,1.2c0.2,0.3,0.5,0.6,1,0.8c0.3,0.1,0.8,0.2,1.4,0.4c0.6,0.1,1.1,0.2,1.5,0.2
		V72.8z M597,58.5V46.8h-2.9c-1.5,0-2.6,0.5-3.4,1.5c-0.8,1-1.2,2.4-1.2,4.1c0,2,0.5,3.5,1.4,4.5c1,1,2.3,1.5,3.9,1.5H597z"/>
</g>
<g class="st0">
	<path class="st1" d="M256.2,88.3c1.5,0,2.6,0.5,3.4,1.6c0.8,1.1,1.2,2.3,1.2,3.9c0,1-0.2,1.9-0.5,2.7c-0.3,0.8-0.9,1.5-1.6,2
		c-0.7,0.5-1.6,0.8-2.6,0.8c-1,0-1.8-0.3-2.6-0.8c-0.7-0.5-1.3-1.2-1.6-2c-0.3-0.8-0.5-1.7-0.5-2.7c0-1,0.2-1.9,0.5-2.7
		c0.3-0.8,0.9-1.5,1.6-2C254.4,88.6,255.2,88.3,256.2,88.3z M256.2,89c-0.6,0-1.1,0.4-1.3,1.1c-0.3,0.8-0.4,2-0.4,3.7
		c0,1.7,0.1,2.9,0.4,3.7c0.3,0.7,0.7,1.1,1.3,1.1c0.6,0,1.1-0.4,1.3-1.1c0.3-0.8,0.4-2,0.4-3.7c0-1.7-0.1-2.9-0.4-3.7
		C257.3,89.4,256.8,89,256.2,89z"/>
	<path class="st1" d="M269.3,97.8c0,1,0.1,1.9,0.2,2.7s0.4,1.5,0.8,2.3l-0.1,0.2c-0.4-0.2-0.8-0.7-1.2-1.3c-0.4-0.6-0.7-1.2-0.9-1.7
		c-0.2,0.5-0.5,1.1-0.9,1.7c-0.4,0.6-0.8,1-1.2,1.3l-0.1-0.2c0.4-0.8,0.6-1.5,0.8-2.3c0.1-0.8,0.2-1.6,0.2-2.7
		c-0.3,0.9-0.9,1.4-1.8,1.4c-0.7,0-1.2-0.2-1.7-0.7s-0.8-1-1-1.6c-0.2-0.6-0.3-1.2-0.3-1.9s0.1-1.2,0.3-1.8c0.2-0.6,0.5-1.1,1-1.5
		c0.5-0.4,1-0.6,1.7-0.6c0.9,0,1.5,0.5,1.8,1.5c0-2-0.3-3.7-1-5l0.1-0.2c0.4,0.2,0.8,0.6,1.2,1.3c0.4,0.6,0.8,1.2,0.9,1.7
		c0.2-0.5,0.5-1.1,0.9-1.7c0.4-0.6,0.8-1.1,1.2-1.3l0.1,0.2c-0.7,1.3-1,3-1,5c0.3-1,0.9-1.5,1.8-1.5c0.7,0,1.2,0.2,1.7,0.6
		s0.8,0.9,1,1.5c0.2,0.6,0.3,1.2,0.3,1.8s-0.1,1.3-0.3,1.9c-0.2,0.6-0.5,1.1-1,1.6s-1,0.7-1.7,0.7C270.3,99.2,269.7,98.8,269.3,97.8
		z M264.8,95.1c0,1.1,0.1,1.9,0.2,2.3c0.2,0.5,0.4,0.7,0.8,0.7c0.2,0,0.4-0.1,0.5-0.3c0.1-0.2,0.2-0.5,0.3-0.8s0.1-0.6,0.1-0.8
		c0-0.2,0-0.4,0-0.7v-0.8c0-1.7-0.3-2.6-1-2.6C265.1,92.2,264.8,93.2,264.8,95.1z M270.4,98.2c0.3,0,0.6-0.2,0.8-0.7
		c0.1-0.5,0.2-1.2,0.2-2.3c0-1-0.1-1.8-0.2-2.2c-0.2-0.5-0.4-0.7-0.7-0.7c-0.6,0-1,0.9-1,2.6v0.8c0,0.2,0,0.4,0,0.7s0.1,0.5,0.1,0.8
		c0.1,0.3,0.2,0.6,0.3,0.8S270.2,98.2,270.4,98.2z"/>
	<path class="st1" d="M278.7,97.4v0.9h0.8V99H275v-0.7h1V92h-1v-0.7h4.5V92h-0.8v4.3l2.4-3.4V92h-0.8v-0.7h4.5V92h-1v6.3h1V99h-4.5
		v-0.7h0.8V94L278.7,97.4z"/>
	<path class="st1" d="M294.2,98.3h1.2v3.1h-0.7v-0.3c0-0.7-0.2-1.2-0.5-1.5c-0.4-0.4-0.9-0.5-1.5-0.5h-7.1v-0.7h1V92h-1v-0.7h4.5V92
		h-0.7v6.3h2.1V92h-0.7v-0.7h4.5V92h-1V98.3z"/>
	<path class="st1" d="M299.7,97.4v0.9h0.8V99h-4.5v-0.7h1V92h-1v-0.7h4.5V92h-0.8v4.3l2.4-3.4V92h-0.8v-0.7h4.5V92h-1v6.3h1V99h-4.5
		v-0.7h0.8V94L299.7,97.4z"/>
	<path class="st1" d="M313.5,99.2c-1.2,0-1.9-0.6-2-1.9c-0.2,0.6-0.5,1.1-0.9,1.4s-1,0.5-1.7,0.5c-0.7,0-1.2-0.2-1.6-0.5
		c-0.4-0.3-0.7-0.8-0.7-1.4c0-0.4,0.1-0.8,0.3-1.1c0.2-0.3,0.5-0.6,0.9-0.7s0.8-0.3,1.1-0.4c0.3-0.1,0.7-0.2,1.2-0.2l1.1-0.2v-1.1
		c0-1.2-0.5-1.8-1.6-1.8c-0.5,0-0.8,0.1-1.1,0.3c0.6,0.2,0.9,0.6,0.9,1.2c0,0.4-0.1,0.7-0.3,0.9s-0.5,0.3-0.9,0.3
		c-0.4,0-0.7-0.1-1-0.3c-0.2-0.2-0.4-0.5-0.4-0.9c0-0.4,0.1-0.8,0.4-1.1c0.3-0.3,0.6-0.6,1-0.7c0.4-0.2,0.8-0.3,1.2-0.4
		c0.4-0.1,0.8-0.1,1.2-0.1c0.4,0,0.8,0,1.2,0.1c0.4,0.1,0.7,0.2,1.1,0.4s0.6,0.4,0.8,0.8s0.3,0.7,0.3,1.2v4.1c0,0.2,0,0.4,0.1,0.5
		c0.1,0.1,0.2,0.2,0.3,0.2c0.4,0,0.6-0.5,0.6-1.5h0.6c0,0.8-0.1,1.5-0.4,1.9C314.8,99,314.2,99.2,313.5,99.2z M309.3,96.9
		c0,0.6,0.2,0.9,0.7,0.9c0.7,0,1.1-0.7,1.1-2v-0.5l-0.5,0.1c-0.4,0.1-0.8,0.3-1,0.5C309.4,96.2,309.3,96.5,309.3,96.9z"/>
	<path class="st1" d="M320.8,98.3V92h-1.6c0,1.8,0,3.2-0.1,4.1c-0.1,1.1-0.3,1.9-0.6,2.4c-0.3,0.5-0.8,0.7-1.4,0.7
		c-0.4,0-0.8-0.1-1-0.4c-0.3-0.3-0.4-0.6-0.4-1c0-0.4,0.1-0.7,0.3-0.9c0.2-0.2,0.5-0.3,0.8-0.3c0.3,0,0.6,0.1,0.8,0.3
		c0.2,0.2,0.3,0.4,0.3,0.8c0,0.3-0.1,0.6-0.2,0.8c0.5-0.4,0.8-1.4,0.8-3.1c0-0.1,0-0.3,0-0.5c0-0.2,0-0.4,0-0.5V92h-1.2v-0.7h7.4V92
		h-1v6.3h1V99H320v-0.7H320.8z"/>
	<path class="st1" d="M330.3,92H329v2.3h1.1c0.4,0,0.8,0,1.2,0.1c0.4,0.1,0.7,0.2,1.1,0.3c0.4,0.2,0.6,0.4,0.8,0.7
		c0.2,0.3,0.3,0.7,0.3,1.2s-0.1,0.8-0.3,1.2s-0.5,0.6-0.8,0.7s-0.7,0.3-1.1,0.4s-0.8,0.1-1.2,0.1h-4.9v-0.7h1V92h-1v-0.7h5V92z
		 M329.5,95H329v3.4h0.5c0.5,0,0.8-0.2,1-0.5c0.2-0.3,0.3-0.7,0.3-1.2C330.9,95.5,330.4,95,329.5,95z"/>
	<path class="st1" d="M338,95.4v2.9h0.8V99h-4.5v-0.7h1V92h-1v-0.7h4.5V92H338v2.7h2.3V92h-0.8v-0.7h4.5V92h-1v6.3h1V99h-4.5v-0.7
		h0.8v-2.9H338z"/>
	<path class="st1" d="M349.8,92h-1.3v2.3h1.1c0.4,0,0.8,0,1.2,0.1c0.4,0.1,0.7,0.2,1.1,0.3c0.4,0.2,0.6,0.4,0.8,0.7
		c0.2,0.3,0.3,0.7,0.3,1.2s-0.1,0.8-0.3,1.2s-0.5,0.6-0.8,0.7s-0.7,0.3-1.1,0.4s-0.8,0.1-1.2,0.1h-4.9v-0.7h1V92h-1v-0.7h5V92z
		 M349,95h-0.5v3.4h0.5c0.5,0,0.8-0.2,1-0.5c0.2-0.3,0.3-0.7,0.3-1.2C350.4,95.5,349.9,95,349,95z M357.5,98.3V99H353v-0.7h0.8V92
		h-0.8v-0.7h4.6V92h-1v6.3H357.5z"/>
	<path class="st1" d="M362,97.4v0.9h0.8V99h-4.5v-0.7h1V92h-1v-0.7h4.5V92H362v4.3l2.4-3.4V92h-0.8v-0.7h4.5V92h-1v6.3h1V99h-4.5
		v-0.7h0.8V94L362,97.4z M364.8,87c0.3,0,0.6,0.1,0.8,0.3s0.3,0.5,0.3,0.8c0,0.7-0.3,1.3-0.8,1.7c-0.5,0.4-1.2,0.7-1.9,0.7
		s-1.4-0.2-1.9-0.7c-0.5-0.4-0.8-1-0.8-1.7c0-0.3,0.1-0.6,0.3-0.8c0.2-0.2,0.5-0.3,0.8-0.3c0.3,0,0.5,0.1,0.7,0.2
		c0.2,0.2,0.3,0.4,0.3,0.7s-0.1,0.5-0.3,0.7c-0.2,0.2-0.4,0.2-0.7,0.2c-0.2,0-0.4,0-0.6-0.1c0.5,0.4,1.2,0.6,2.3,0.6
		c1.1,0,1.9-0.2,2.4-0.6c-0.3,0.1-0.5,0.1-0.7,0.1c-0.3,0-0.5-0.1-0.7-0.2c-0.2-0.2-0.3-0.4-0.3-0.7c0-0.3,0.1-0.5,0.3-0.7
		C364.3,87,364.5,87,364.8,87z"/>
	<path class="st1" d="M379,96.5l0.7,0.1c-0.1,0.8-0.5,1.5-1,1.9c-0.5,0.5-1.2,0.7-2.1,0.7c-1.2,0-2.1-0.4-2.9-1.1
		c-0.7-0.8-1.1-1.7-1.1-3c0-1.2,0.4-2.2,1.1-2.9c0.8-0.7,1.8-1.1,3-1.1c0.8,0,1.5,0.2,2.1,0.5c0.5,0.4,0.8,1,0.8,1.8
		c0,0.4-0.1,0.7-0.3,0.9c-0.2,0.2-0.5,0.3-0.9,0.3c-0.4,0-0.7-0.1-1-0.3c-0.2-0.2-0.4-0.5-0.4-0.9c0-0.4,0.1-0.7,0.3-0.9
		c0.2-0.2,0.5-0.4,0.8-0.4c-0.1-0.1-0.2-0.2-0.4-0.3c-0.2-0.1-0.4-0.1-0.6-0.1c-0.3,0-0.6,0.1-0.8,0.2c-0.2,0.2-0.4,0.4-0.5,0.6
		c-0.1,0.2-0.2,0.5-0.3,0.9c-0.1,0.4-0.1,0.7-0.1,0.9c0,0.2,0,0.5,0,0.9c0,2.2,0.6,3.3,1.7,3.3C378.1,98.4,378.7,97.8,379,96.5z"/>
	<path class="st1" d="M387.4,99.2c-1.2,0-1.9-0.6-2-1.9c-0.2,0.6-0.5,1.1-0.9,1.4c-0.5,0.3-1,0.5-1.7,0.5c-0.6,0-1.2-0.2-1.6-0.5
		c-0.4-0.3-0.7-0.8-0.7-1.4c0-0.4,0.1-0.8,0.3-1.1c0.2-0.3,0.5-0.6,0.9-0.7c0.4-0.2,0.8-0.3,1.1-0.4c0.3-0.1,0.7-0.2,1.2-0.2
		l1.1-0.2v-1.1c0-1.2-0.5-1.8-1.6-1.8c-0.5,0-0.8,0.1-1.1,0.3c0.6,0.2,0.9,0.6,0.9,1.2c0,0.4-0.1,0.7-0.3,0.9
		c-0.2,0.2-0.5,0.3-0.9,0.3c-0.4,0-0.7-0.1-1-0.3s-0.4-0.5-0.4-0.9c0-0.4,0.1-0.8,0.4-1.1c0.3-0.3,0.6-0.6,1-0.7
		c0.4-0.2,0.8-0.3,1.2-0.4c0.4-0.1,0.8-0.1,1.2-0.1c0.4,0,0.8,0,1.2,0.1c0.4,0.1,0.7,0.2,1,0.4s0.6,0.4,0.8,0.8s0.3,0.7,0.3,1.2v4.1
		c0,0.2,0,0.4,0.1,0.5c0.1,0.1,0.2,0.2,0.3,0.2c0.4,0,0.6-0.5,0.6-1.5h0.6c0,0.8-0.1,1.5-0.4,1.9C388.7,99,388.1,99.2,387.4,99.2z
		 M383.2,96.9c0,0.6,0.2,0.9,0.7,0.9c0.7,0,1.1-0.7,1.1-2v-0.5l-0.5,0.1c-0.4,0.1-0.8,0.3-1,0.5C383.3,96.2,383.2,96.5,383.2,96.9z"
		/>
	<path class="st1" d="M393.6,97.4v0.9h0.8V99h-4.5v-0.7h1V92h-1v-0.7h4.5V92h-0.8v4.3l2.4-3.4V92h-0.8v-0.7h4.5V92h-1v6.3h1V99h-4.5
		v-0.7h0.8V94L393.6,97.4z M396.4,87c0.3,0,0.6,0.1,0.8,0.3s0.3,0.5,0.3,0.8c0,0.7-0.3,1.3-0.8,1.7c-0.5,0.4-1.2,0.7-1.9,0.7
		s-1.4-0.2-1.9-0.7c-0.5-0.4-0.8-1-0.8-1.7c0-0.3,0.1-0.6,0.3-0.8c0.2-0.2,0.5-0.3,0.8-0.3c0.3,0,0.5,0.1,0.7,0.2
		c0.2,0.2,0.3,0.4,0.3,0.7s-0.1,0.5-0.3,0.7c-0.2,0.2-0.4,0.2-0.7,0.2c-0.2,0-0.4,0-0.6-0.1c0.5,0.4,1.2,0.6,2.3,0.6
		c1.1,0,1.9-0.2,2.4-0.6c-0.3,0.1-0.5,0.1-0.7,0.1c-0.3,0-0.5-0.1-0.7-0.2c-0.2-0.2-0.3-0.4-0.3-0.7c0-0.3,0.1-0.5,0.3-0.7
		C395.9,87,396.1,87,396.4,87z"/>
	<path class="st1" d="M405.6,98.3h1.1V99h-5v-0.7h1.1V92h-0.3c-1,0-1.5,0.6-1.5,1.9v0.3h-0.7v-2.8h7.7v2.8h-0.7v-0.3
		c0-1.2-0.5-1.9-1.5-1.9h-0.3V98.3z"/>
</g>
<g class="st0">
	<path class="st1" d="M202.3,115.3v0.7h-4.6v-0.7h1v-9.1h-1v-0.7h10.2v0.7h-1v9.1h1v0.7h-4.6v-0.7h0.8v-9.1h-2.6v9.1H202.3z"/>
	<path class="st1" d="M209.9,109.2c0.8-0.8,1.8-1.1,2.9-1.1c1.2,0,2.2,0.4,2.9,1.2c0.8,0.8,1.2,1.8,1.2,2.9c0,1.2-0.4,2.1-1.2,2.9
		c-0.8,0.8-1.8,1.1-2.9,1.1c-1.2,0-2.2-0.4-2.9-1.2c-0.8-0.8-1.2-1.8-1.2-2.9S209.1,109.9,209.9,109.2z M212.8,108.7
		c-0.5,0-0.8,0.3-1,0.8c-0.2,0.5-0.3,1.4-0.3,2.6c0,1.2,0.1,2.1,0.3,2.6c0.2,0.5,0.5,0.8,1,0.8c0.5,0,0.8-0.3,1-0.8
		c0.2-0.5,0.3-1.4,0.3-2.5c0-1.2-0.1-2-0.3-2.6C213.6,109,213.3,108.7,212.8,108.7z"/>
	<path class="st1" d="M225.9,108.4c1.1,0,2.1,0.3,2.8,1c0.8,0.7,1.1,1.6,1.1,2.7c0,1.1-0.4,2.1-1.2,2.9c-0.8,0.8-1.8,1.2-2.9,1.2
		c-1.3,0-2.4-0.5-3.1-1.4c-0.7-0.9-1.1-2.1-1.1-3.5c0-0.7,0-1.3,0.1-1.9c0.1-0.6,0.2-1.1,0.4-1.6c0.2-0.5,0.5-1,0.8-1.3
		c0.3-0.4,0.8-0.7,1.3-0.9c0.5-0.2,1.2-0.4,1.9-0.5c0.5,0,0.8-0.1,0.8-0.1c0.1,0,0.2,0,0.3,0c0.1,0,0.2,0,0.2,0c0.1,0,0.1,0,0.1,0
		c0.5,0,0.8-0.1,0.9-0.2c0.2-0.1,0.3-0.2,0.3-0.4h0.6c0,0.7-0.1,1.3-0.3,1.7s-0.7,0.7-1.3,0.8c-0.3,0.1-0.9,0.1-1.9,0.2
		c-0.9,0.1-1.5,0.2-1.8,0.3c-0.4,0.1-0.7,0.3-0.9,0.5c-0.2,0.2-0.4,0.5-0.5,0.8c-0.1,0.3-0.2,0.6-0.2,0.9c0,0.3-0.1,0.7-0.1,1.1h0.2
		c0.2-0.8,0.6-1.4,1.2-1.9S225.1,108.4,225.9,108.4z M225.7,109.1c-0.2,0-0.4,0.1-0.6,0.2c-0.2,0.1-0.3,0.2-0.4,0.4
		c-0.1,0.2-0.2,0.4-0.2,0.6s-0.1,0.4-0.1,0.7s0,0.5,0,0.6c0,0.1,0,0.3,0,0.5c0,2.2,0.4,3.3,1.3,3.3s1.3-1.1,1.3-3.2
		c0-1.1-0.1-1.9-0.3-2.4C226.5,109.4,226.2,109.1,225.7,109.1z"/>
	<path class="st1" d="M235.4,115.3v-6.3h-1.6c0,1.8,0,3.2-0.1,4.1c-0.1,1.1-0.3,1.9-0.6,2.4c-0.3,0.5-0.8,0.7-1.4,0.7
		c-0.4,0-0.8-0.1-1-0.4c-0.3-0.3-0.4-0.6-0.4-1c0-0.4,0.1-0.7,0.3-0.9c0.2-0.2,0.5-0.3,0.8-0.3c0.3,0,0.6,0.1,0.8,0.3
		c0.2,0.2,0.3,0.4,0.3,0.8c0,0.3-0.1,0.6-0.2,0.8c0.5-0.4,0.8-1.4,0.8-3.1c0-0.1,0-0.3,0-0.5c0-0.2,0-0.4,0-0.5v-2.3h-1.2v-0.7h7.4
		v0.7h-1v6.3h1v0.7h-4.5v-0.7H235.4z"/>
	<path class="st1" d="M246.8,116.2c-1.2,0-1.9-0.6-2-1.9c-0.2,0.6-0.5,1.1-0.9,1.4c-0.5,0.3-1,0.5-1.7,0.5c-0.7,0-1.2-0.2-1.6-0.5
		c-0.4-0.3-0.7-0.8-0.7-1.4c0-0.4,0.1-0.8,0.3-1.1c0.2-0.3,0.5-0.6,0.9-0.7s0.8-0.3,1.1-0.4c0.3-0.1,0.7-0.2,1.2-0.2l1.1-0.2v-1.1
		c0-1.2-0.5-1.8-1.6-1.8c-0.5,0-0.8,0.1-1.1,0.3c0.6,0.2,0.9,0.6,0.9,1.2c0,0.4-0.1,0.7-0.3,0.9s-0.5,0.3-0.9,0.3
		c-0.4,0-0.7-0.1-1-0.3c-0.2-0.2-0.4-0.5-0.4-0.9c0-0.4,0.1-0.8,0.4-1.1c0.3-0.3,0.6-0.5,1-0.7c0.4-0.2,0.8-0.3,1.2-0.4
		c0.4-0.1,0.8-0.1,1.2-0.1c0.4,0,0.8,0,1.2,0.1s0.7,0.2,1.1,0.4s0.6,0.4,0.8,0.8s0.3,0.7,0.3,1.2v4.1c0,0.2,0,0.4,0.1,0.5
		c0.1,0.1,0.2,0.2,0.3,0.2c0.4,0,0.6-0.5,0.6-1.5h0.6c0,0.8-0.1,1.5-0.4,1.9C248.1,116,247.6,116.2,246.8,116.2z M242.7,113.9
		c0,0.6,0.2,0.9,0.7,0.9c0.7,0,1.1-0.7,1.1-2v-0.5l-0.5,0.1c-0.4,0.1-0.8,0.3-1,0.5C242.8,113.1,242.7,113.4,242.7,113.9z"/>
	<path class="st1" d="M253,115.3h1.6v0.7h-5.3v-0.7h1v-6.3h-1v-0.7h6.8v2.9h-0.6v-0.3c0-0.6-0.1-1.1-0.4-1.4
		c-0.3-0.4-0.7-0.5-1.3-0.5H253V115.3z"/>
	<path class="st1" d="M258,109.2c0.8-0.8,1.8-1.1,2.9-1.1c1.2,0,2.2,0.4,2.9,1.2c0.8,0.8,1.2,1.8,1.2,2.9c0,1.2-0.4,2.1-1.2,2.9
		c-0.8,0.8-1.8,1.1-2.9,1.1c-1.2,0-2.2-0.4-2.9-1.2c-0.8-0.8-1.2-1.8-1.2-2.9S257.2,109.9,258,109.2z M261,108.7
		c-0.5,0-0.8,0.3-1,0.8c-0.2,0.5-0.3,1.4-0.3,2.6c0,1.2,0.1,2.1,0.3,2.6c0.2,0.5,0.5,0.8,1,0.8c0.5,0,0.8-0.3,1-0.8
		c0.2-0.5,0.3-1.4,0.3-2.5c0-1.2-0.1-2-0.3-2.6C261.7,109,261.4,108.7,261,108.7z"/>
	<path class="st1" d="M272.3,113.5l0.7,0.1c-0.1,0.8-0.5,1.5-1,1.9c-0.5,0.5-1.2,0.7-2.1,0.7c-1.2,0-2.1-0.4-2.9-1.1s-1.1-1.7-1.1-3
		c0-1.2,0.4-2.2,1.1-2.9c0.8-0.7,1.8-1.1,3-1.1c0.9,0,1.5,0.2,2.1,0.5s0.8,1,0.8,1.8c0,0.4-0.1,0.7-0.3,0.9
		c-0.2,0.2-0.5,0.3-0.9,0.3c-0.4,0-0.7-0.1-1-0.3c-0.2-0.2-0.4-0.5-0.4-0.9c0-0.4,0.1-0.7,0.3-0.9c0.2-0.2,0.5-0.4,0.8-0.4
		c-0.1-0.1-0.2-0.2-0.4-0.3c-0.2-0.1-0.4-0.1-0.6-0.1c-0.3,0-0.6,0.1-0.8,0.2c-0.2,0.2-0.4,0.4-0.5,0.6c-0.1,0.2-0.2,0.5-0.3,0.9
		s-0.1,0.7-0.1,0.9s0,0.5,0,0.9c0,2.2,0.6,3.3,1.7,3.3C271.4,115.3,272,114.7,272.3,113.5z"/>
	<path class="st1" d="M278.6,115.3v-6.3H277c0,1.8,0,3.2-0.1,4.1c-0.1,1.1-0.3,1.9-0.6,2.4c-0.3,0.5-0.8,0.7-1.4,0.7
		c-0.4,0-0.8-0.1-1-0.4c-0.3-0.3-0.4-0.6-0.4-1c0-0.4,0.1-0.7,0.3-0.9c0.2-0.2,0.5-0.3,0.8-0.3c0.3,0,0.6,0.1,0.8,0.3
		c0.2,0.2,0.3,0.4,0.3,0.8c0,0.3-0.1,0.6-0.2,0.8c0.5-0.4,0.8-1.4,0.8-3.1c0-0.1,0-0.3,0-0.5c0-0.2,0-0.4,0-0.5v-2.3H275v-0.7h7.4
		v0.7h-1v6.3h1v0.7h-4.5v-0.7H278.6z"/>
	<path class="st1" d="M284.4,109.2c0.8-0.8,1.8-1.1,2.9-1.1c1.2,0,2.2,0.4,2.9,1.2c0.8,0.8,1.2,1.8,1.2,2.9c0,1.2-0.4,2.1-1.2,2.9
		c-0.8,0.8-1.8,1.1-2.9,1.1c-1.2,0-2.2-0.4-2.9-1.2c-0.8-0.8-1.2-1.8-1.2-2.9S283.6,109.9,284.4,109.2z M287.3,108.7
		c-0.5,0-0.8,0.3-1,0.8c-0.2,0.5-0.3,1.4-0.3,2.6c0,1.2,0.1,2.1,0.3,2.6c0.2,0.5,0.5,0.8,1,0.8c0.5,0,0.8-0.3,1-0.8
		c0.2-0.5,0.3-1.4,0.3-2.5c0-1.2-0.1-2-0.3-2.6C288.1,109,287.7,108.7,287.3,108.7z"/>
	<path class="st1" d="M296.6,115.9h-4.4v-0.7h1v-6.3h-1v-0.7h4.4c0.3,0,0.5,0,0.8,0s0.5,0,0.8,0.1c0.3,0,0.6,0.1,0.8,0.2
		c0.2,0.1,0.4,0.2,0.7,0.3s0.4,0.3,0.5,0.5c0.1,0.2,0.2,0.5,0.2,0.8c0,1-0.8,1.6-2.2,1.7c1.7,0.1,2.6,0.7,2.6,1.9
		c0,0.4-0.1,0.7-0.3,1s-0.4,0.5-0.7,0.6s-0.6,0.3-1,0.3c-0.4,0.1-0.7,0.1-1,0.1S297,115.9,296.6,115.9z M297.6,110.3
		c0-0.9-0.5-1.3-1.4-1.3H296v2.7h0.4c0.5,0,0.8-0.1,1-0.3S297.6,110.8,297.6,110.3z M296.3,112.3H296v2.9h0.3c0.5,0,1-0.1,1.2-0.3
		s0.4-0.6,0.4-1.1c0-0.6-0.1-0.9-0.4-1.2C297.3,112.4,296.8,112.3,296.3,112.3z"/>
	<path class="st1" d="M305.8,116.2c-1.2,0-2.2-0.4-3-1.1c-0.8-0.8-1.2-1.8-1.2-3c0-1.2,0.4-2.1,1.1-2.9c0.7-0.8,1.7-1.1,2.9-1.1
		c1.1,0,2,0.3,2.7,1c0.7,0.7,1,1.5,1,2.6v0.3c0,0,0,0.1,0,0.1c0,0.1,0,0.1,0,0.1h-4.8v0.2c0,2,0.6,3,1.9,3c1.1,0,1.8-0.6,2.1-1.9
		l0.7,0.1c-0.1,0.8-0.5,1.5-1.1,2C307.4,115.9,306.6,116.2,305.8,116.2z M305.5,108.7c-0.4,0-0.7,0.2-0.8,0.6
		c-0.2,0.4-0.3,1.2-0.3,2.2h2.2c0-1.1-0.1-1.9-0.2-2.2C306.2,108.9,305.9,108.7,305.5,108.7z"/>
	<path class="st1" d="M313.7,112.3v2.9h0.8v0.7H310v-0.7h1v-6.3h-1v-0.7h4.5v0.7h-0.8v2.7h2.3v-2.7h-0.8v-0.7h4.5v0.7h-1v6.3h1v0.7
		h-4.5v-0.7h0.8v-2.9H313.7z"/>
	<path class="st1" d="M324.3,114.4v0.9h0.8v0.7h-4.5v-0.7h1v-6.3h-1v-0.7h4.5v0.7h-0.8v4.3l2.4-3.4v-0.8h-0.8v-0.7h4.5v0.7h-1v6.3h1
		v0.7h-4.5v-0.7h0.8v-4.3L324.3,114.4z"/>
	<path class="st1" d="M343.8,112.1c0,1.2-0.4,2.1-1.1,2.9c-0.7,0.8-1.7,1.2-2.9,1.2c-1.1,0-2-0.4-2.8-1.1c-0.8-0.7-1.2-1.7-1.2-2.8
		H335v2.9h0.7v0.7h-4.5v-0.7h1v-6.3h-1v-0.7h4.5v0.7H335v2.7h0.9c0.1-1.1,0.5-1.9,1.2-2.6c0.7-0.7,1.7-1,2.7-1
		c1.2,0,2.1,0.4,2.9,1.2C343.4,110,343.8,110.9,343.8,112.1z M338.6,112c0,1.3,0.1,2.1,0.3,2.6c0.2,0.5,0.5,0.8,0.9,0.8
		c0.4,0,0.7-0.3,0.9-0.8c0.2-0.5,0.3-1.3,0.3-2.5c0-1.2-0.1-2-0.3-2.6c-0.2-0.5-0.5-0.8-0.9-0.8c-0.4,0-0.7,0.2-0.9,0.7
		C338.7,110,338.6,110.8,338.6,112z"/>
	<path class="st1" d="M350.2,107v8.3h1.6v0.7h-3.4v-0.7h1v-9.1h-1v-0.7h4l2.1,5.5l2.1-5.5h4v0.7h-1v9.1h1v0.7h-4.9v-0.7h1.1V107
		l-2.9,7.5h-0.8L350.2,107z"/>
	<path class="st1" d="M365.2,114.4v0.9h0.8v0.7h-4.5v-0.7h1v-6.3h-1v-0.7h4.5v0.7h-0.8v4.3l2.4-3.4v-0.8h-0.8v-0.7h4.5v0.7h-1v6.3h1
		v0.7h-4.5v-0.7h0.8v-4.3L365.2,114.4z"/>
	<path class="st1" d="M377.2,115.3h1.1v0.7h-5v-0.7h1.1v-6.3h-0.3c-1,0-1.5,0.6-1.5,1.9v0.3H372v-2.8h7.7v2.8H379v-0.3
		c0-1.2-0.5-1.9-1.5-1.9h-0.3V115.3z"/>
	<path class="st1" d="M384.1,115.3v3.7h1.8v0.7h-5.5V119h1v-10h-1v-0.7c1.5,0,2.4-0.1,2.8-0.2l0.5,0.1v2.3c0.1-0.8,0.4-1.4,0.9-1.8
		c0.5-0.5,1.1-0.7,1.8-0.7c0.7,0,1.2,0.2,1.7,0.6s0.8,0.9,1,1.5c0.2,0.6,0.3,1.2,0.3,1.9c0,0.7-0.1,1.3-0.4,1.9
		c-0.2,0.6-0.6,1.1-1.1,1.6c-0.5,0.4-1.1,0.6-1.8,0.6C385.1,116.2,384.5,115.9,384.1,115.3z M385.2,115.3c0.4,0,0.7-0.2,0.9-0.7
		c0.2-0.4,0.3-1.2,0.3-2.3c0-1.1-0.1-1.9-0.3-2.4c-0.2-0.5-0.5-0.7-0.9-0.7c-0.8,0-1.2,0.9-1.2,2.7v1.1
		C384.1,114.5,384.5,115.3,385.2,115.3z"/>
	<path class="st1" d="M391.4,109.2c0.8-0.8,1.8-1.1,2.9-1.1s2.2,0.4,2.9,1.2c0.8,0.8,1.2,1.8,1.2,2.9c0,1.2-0.4,2.1-1.2,2.9
		s-1.8,1.1-2.9,1.1c-1.2,0-2.2-0.4-2.9-1.2c-0.8-0.8-1.2-1.8-1.2-2.9S390.6,109.9,391.4,109.2z M394.3,108.7c-0.5,0-0.8,0.3-1,0.8
		c-0.2,0.5-0.3,1.4-0.3,2.6c0,1.2,0.1,2.1,0.3,2.6c0.2,0.5,0.5,0.8,1,0.8c0.5,0,0.8-0.3,1-0.8c0.2-0.5,0.3-1.4,0.3-2.5
		c0-1.2-0.1-2-0.3-2.6C395.1,109,394.8,108.7,394.3,108.7z"/>
	<path class="st1" d="M403,108.9v6.3h0.7v0.7h-4.4v-0.7h1v-6.3h-1v-0.7h9.5v0.7h-1v6.3h1v0.7h-4.4v-0.7h0.7v-6.3H403z"/>
	<path class="st1" d="M410.7,109.2c0.8-0.8,1.8-1.1,2.9-1.1s2.2,0.4,2.9,1.2c0.8,0.8,1.2,1.8,1.2,2.9c0,1.2-0.4,2.1-1.2,2.9
		s-1.8,1.1-2.9,1.1c-1.2,0-2.2-0.4-2.9-1.2c-0.8-0.8-1.2-1.8-1.2-2.9S410,109.9,410.7,109.2z M413.7,108.7c-0.5,0-0.8,0.3-1,0.8
		c-0.2,0.5-0.3,1.4-0.3,2.6c0,1.2,0.1,2.1,0.3,2.6c0.2,0.5,0.5,0.8,1,0.8c0.5,0,0.8-0.3,1-0.8c0.2-0.5,0.3-1.4,0.3-2.5
		c0-1.2-0.1-2-0.3-2.6C414.5,109,414.1,108.7,413.7,108.7z"/>
	<path class="st1" d="M423.4,115.3v-6.3h-1.6c0,1.8,0,3.2-0.1,4.1c-0.1,1.1-0.3,1.9-0.6,2.4c-0.3,0.5-0.8,0.7-1.4,0.7
		c-0.4,0-0.8-0.1-1-0.4c-0.3-0.3-0.4-0.6-0.4-1c0-0.4,0.1-0.7,0.3-0.9c0.2-0.2,0.5-0.3,0.8-0.3c0.3,0,0.6,0.1,0.8,0.3
		c0.2,0.2,0.3,0.4,0.3,0.8c0,0.3-0.1,0.6-0.2,0.8c0.5-0.4,0.8-1.4,0.8-3.1c0-0.1,0-0.3,0-0.5c0-0.2,0-0.4,0-0.5v-2.3h-1.2v-0.7h7.3
		v0.7h-1v6.3h1v0.7h-4.5v-0.7H423.4z"/>
	<path class="st1" d="M431.6,114.4v0.9h0.8v0.7h-4.5v-0.7h1v-6.3h-1v-0.7h4.5v0.7h-0.8v4.3l2.4-3.4v-0.8h-0.8v-0.7h4.5v0.7h-1v6.3h1
		v0.7h-4.5v-0.7h0.8v-4.3L431.6,114.4z"/>
	<path class="st1" d="M443.6,115.3h1.1v0.7h-5v-0.7h1.1v-6.3h-0.3c-1,0-1.5,0.6-1.5,1.9v0.3h-0.7v-2.8h7.7v2.8h-0.7v-0.3
		c0-1.2-0.5-1.9-1.5-1.9h-0.3V115.3z"/>
	<path class="st1" d="M453.7,116.2c-1.2,0-1.9-0.6-2-1.9c-0.2,0.6-0.5,1.1-0.9,1.4c-0.5,0.3-1,0.5-1.7,0.5c-0.6,0-1.2-0.2-1.6-0.5
		c-0.4-0.3-0.7-0.8-0.7-1.4c0-0.4,0.1-0.8,0.3-1.1c0.2-0.3,0.5-0.6,0.9-0.7c0.4-0.2,0.8-0.3,1.1-0.4c0.3-0.1,0.7-0.2,1.2-0.2
		l1.1-0.2v-1.1c0-1.2-0.5-1.8-1.6-1.8c-0.5,0-0.8,0.1-1.1,0.3c0.6,0.2,0.9,0.6,0.9,1.2c0,0.4-0.1,0.7-0.3,0.9
		c-0.2,0.2-0.5,0.3-0.9,0.3c-0.4,0-0.7-0.1-1-0.3s-0.4-0.5-0.4-0.9c0-0.4,0.1-0.8,0.4-1.1c0.3-0.3,0.6-0.5,1-0.7
		c0.4-0.2,0.8-0.3,1.2-0.4c0.4-0.1,0.8-0.1,1.2-0.1c0.4,0,0.8,0,1.2,0.1s0.7,0.2,1,0.4s0.6,0.4,0.8,0.8s0.3,0.7,0.3,1.2v4.1
		c0,0.2,0,0.4,0.1,0.5c0.1,0.1,0.2,0.2,0.3,0.2c0.4,0,0.6-0.5,0.6-1.5h0.6c0,0.8-0.1,1.5-0.4,1.9C455,116,454.4,116.2,453.7,116.2z
		 M449.5,113.9c0,0.6,0.2,0.9,0.7,0.9c0.7,0,1.1-0.7,1.1-2v-0.5l-0.5,0.1c-0.4,0.1-0.8,0.3-1,0.5
		C449.6,113.1,449.5,113.4,449.5,113.9z"/>
</g>
<g class="st0">
	<path class="st1" d="M165.9,132.8h-0.4l-0.6-0.6c-0.3,0.2-0.6,0.4-0.9,0.5c-0.4,0.1-0.8,0.2-1.2,0.2c-0.7,0-1.4-0.2-2-0.5
		s-1.1-0.7-1.4-1.2s-0.7-1.1-0.9-1.7s-0.3-1.3-0.3-2c0-0.7,0.1-1.3,0.3-2s0.5-1.2,0.8-1.7c0.4-0.5,0.8-0.9,1.4-1.2
		c0.6-0.3,1.2-0.5,2-0.5c0.9,0,1.5,0.2,2,0.6l0.6-0.5h0.4v3.5h-0.7c0-0.5-0.1-0.9-0.2-1.3s-0.3-0.7-0.6-1.1
		c-0.3-0.3-0.7-0.5-1.1-0.5c-0.7,0-1.3,0.4-1.6,1.1c-0.3,0.7-0.5,1.9-0.5,3.6c0,1.6,0.2,2.8,0.5,3.6c0.3,0.7,0.8,1.1,1.5,1.1
		c0.7,0,1.2-0.3,1.5-0.9s0.5-1.2,0.5-2h0.7V132.8z"/>
	<path class="st1" d="M170.9,131.1v0.9h0.8v0.7h-4.5V132h1v-6.3h-1V125h4.5v0.7h-0.8v4.3l2.4-3.4v-0.8h-0.8V125h4.5v0.7h-1v6.3h1
		v0.7h-4.5V132h0.8v-4.3L170.9,131.1z"/>
	<path class="st1" d="M179.6,126.4v5.6h1.2v0.7h-3V132h1v-6.3h-1V125h4l1.7,3.7l1.7-3.7h3.9v0.7h-1v6.3h1v0.7h-4.7V132h1v-5.6
		l-2.5,5.5H182L179.6,126.4z"/>
	<path class="st1" d="M194.3,125.1c1.1,0,2.1,0.3,2.8,1c0.8,0.7,1.1,1.6,1.1,2.7c0,1.1-0.4,2.1-1.2,2.9c-0.8,0.8-1.8,1.2-2.9,1.2
		c-1.3,0-2.4-0.5-3.1-1.4c-0.7-0.9-1.1-2.1-1.1-3.5c0-0.7,0-1.3,0.1-1.9c0.1-0.6,0.2-1.1,0.4-1.6c0.2-0.5,0.5-1,0.8-1.3
		c0.3-0.4,0.8-0.7,1.3-0.9c0.5-0.2,1.2-0.4,1.9-0.5c0.5,0,0.8-0.1,0.8-0.1c0.1,0,0.2,0,0.3,0c0.1,0,0.2,0,0.2,0c0.1,0,0.1,0,0.1,0
		c0.5,0,0.8-0.1,0.9-0.2c0.2-0.1,0.3-0.2,0.3-0.4h0.6c0,0.7-0.1,1.3-0.3,1.7s-0.7,0.7-1.3,0.8c-0.3,0.1-0.9,0.1-1.9,0.2
		c-0.9,0.1-1.5,0.2-1.8,0.3c-0.4,0.1-0.7,0.3-0.9,0.5c-0.2,0.2-0.4,0.5-0.5,0.8c-0.1,0.3-0.2,0.6-0.2,0.9c0,0.3-0.1,0.7-0.1,1.1h0.2
		c0.2-0.8,0.6-1.4,1.2-1.9S193.4,125.1,194.3,125.1z M194.1,125.8c-0.2,0-0.4,0.1-0.6,0.2c-0.2,0.1-0.3,0.2-0.4,0.4
		c-0.1,0.2-0.2,0.4-0.2,0.6s-0.1,0.4-0.1,0.7s0,0.5,0,0.6c0,0.1,0,0.3,0,0.5c0,2.2,0.4,3.3,1.3,3.3s1.3-1.1,1.3-3.2
		c0-1.1-0.1-1.9-0.3-2.4C194.9,126.1,194.6,125.8,194.1,125.8z"/>
	<path class="st1" d="M202.8,131.1v0.9h0.8v0.7h-4.5V132h1v-6.3h-1V125h4.5v0.7h-0.8v4.3l2.4-3.4v-0.8h-0.8V125h4.5v0.7h-1v6.3h1
		v0.7h-4.5V132h0.8v-4.3L202.8,131.1z"/>
	<path class="st1" d="M213.4,132v3.7h1.8v0.7h-5.5v-0.7h1v-10h-1V125c1.4,0,2.4-0.1,2.8-0.2l0.4,0.1v2.3c0.1-0.8,0.4-1.4,0.9-1.8
		c0.5-0.5,1.1-0.7,1.8-0.7c0.7,0,1.2,0.2,1.7,0.6c0.5,0.4,0.8,0.9,1,1.5c0.2,0.6,0.3,1.2,0.3,1.9c0,0.7-0.1,1.3-0.4,1.9
		s-0.6,1.1-1.1,1.6c-0.5,0.4-1.1,0.6-1.8,0.6C214.5,132.9,213.8,132.6,213.4,132z M214.6,132c0.4,0,0.7-0.2,0.9-0.7
		c0.2-0.4,0.3-1.2,0.3-2.3c0-1.1-0.1-1.9-0.3-2.4c-0.2-0.5-0.5-0.7-0.9-0.7c-0.8,0-1.2,0.9-1.2,2.7v1.1
		C213.4,131.2,213.8,132,214.6,132z"/>
	<path class="st1" d="M225.9,130.2l0.7,0.1c-0.1,0.8-0.5,1.5-1,1.9c-0.5,0.5-1.2,0.7-2.1,0.7c-1.2,0-2.1-0.4-2.9-1.1s-1.1-1.7-1.1-3
		c0-1.2,0.4-2.2,1.1-2.9c0.8-0.7,1.8-1.1,3-1.1c0.9,0,1.5,0.2,2.1,0.5s0.8,1,0.8,1.8c0,0.4-0.1,0.7-0.3,0.9
		c-0.2,0.2-0.5,0.3-0.9,0.3c-0.4,0-0.7-0.1-1-0.3c-0.2-0.2-0.4-0.5-0.4-0.9c0-0.4,0.1-0.7,0.3-0.9c0.2-0.2,0.5-0.4,0.8-0.4
		c-0.1-0.1-0.2-0.2-0.4-0.3c-0.2-0.1-0.4-0.1-0.6-0.1c-0.3,0-0.6,0.1-0.8,0.2c-0.2,0.2-0.4,0.4-0.5,0.6c-0.1,0.2-0.2,0.5-0.3,0.9
		s-0.1,0.7-0.1,0.9s0,0.5,0,0.9c0,2.2,0.6,3.3,1.7,3.3C225,132,225.6,131.4,225.9,130.2z"/>
	<path class="st1" d="M234.9,132.9c-0.6,0-1.1-0.2-1.5-0.5c-0.3-0.3-0.6-0.8-0.8-1.4c-0.1-0.6-0.2-1-0.3-1.3
		c-0.1-0.3-0.2-0.4-0.4-0.5c-0.2-0.1-0.4-0.1-0.6-0.1h-0.2v2.9h0.9v0.7h-4.6V132h1v-6.3h-1V125h4.6v0.7h-0.9v2.7h0.5
		c0.2,0,0.4-0.1,0.6-0.3s0.3-0.6,0.5-1.2c0.1-0.4,0.2-0.8,0.3-1c0.3-0.8,0.9-1.2,1.8-1.2c0.5,0,0.8,0.1,1.1,0.4
		c0.3,0.2,0.4,0.6,0.4,1c0,0.4-0.1,0.7-0.3,0.9c-0.2,0.2-0.5,0.4-0.8,0.4c-0.4,0-0.7-0.1-0.9-0.3c-0.2-0.2-0.3-0.5-0.3-0.9
		c0-0.1,0-0.2,0.1-0.3c0-0.1,0.1-0.2,0.1-0.3c-0.1,0.1-0.2,0.2-0.3,0.3c-0.1,0.2-0.2,0.5-0.3,0.9c-0.1,0.6-0.3,1-0.4,1.2
		c-0.1,0.2-0.3,0.4-0.5,0.5c0.8,0.2,1.5,0.4,1.9,0.7c0.3,0.2,0.5,0.4,0.7,0.6c0.1,0.2,0.2,0.6,0.4,1c0.1,0.5,0.2,0.7,0.3,0.8
		c0.1,0.1,0.1,0.1,0.2,0.1c0.1,0,0.2-0.1,0.3-0.4s0.1-0.7,0.1-1.2h0.6c0,0.8-0.1,1.5-0.4,1.9C236.2,132.7,235.7,132.9,234.9,132.9z"
		/>
	<path class="st1" d="M238.6,125.9c0.8-0.8,1.8-1.1,2.9-1.1c1.2,0,2.2,0.4,2.9,1.2c0.8,0.8,1.2,1.8,1.2,2.9c0,1.2-0.4,2.1-1.2,2.9
		c-0.8,0.8-1.8,1.1-2.9,1.1c-1.2,0-2.2-0.4-2.9-1.2c-0.8-0.8-1.2-1.8-1.2-2.9S237.8,126.6,238.6,125.9z M241.5,125.5
		c-0.5,0-0.8,0.3-1,0.8c-0.2,0.5-0.3,1.4-0.3,2.6c0,1.2,0.1,2.1,0.3,2.6c0.2,0.5,0.5,0.8,1,0.8c0.5,0,0.8-0.3,1-0.8
		c0.2-0.5,0.3-1.4,0.3-2.5c0-1.2-0.1-2-0.3-2.6C242.3,125.7,242,125.5,241.5,125.5z"/>
	<path class="st1" d="M250.2,132h1.6v0.7h-5.3V132h1v-6.3h-1V125h6.8v2.9h-0.6v-0.3c0-0.6-0.1-1.1-0.4-1.4c-0.3-0.4-0.7-0.5-1.3-0.5
		h-0.7V132z"/>
	<path class="st1" d="M255.2,125.9c0.8-0.8,1.8-1.1,2.9-1.1c1.2,0,2.2,0.4,2.9,1.2c0.8,0.8,1.2,1.8,1.2,2.9c0,1.2-0.4,2.1-1.2,2.9
		c-0.8,0.8-1.8,1.1-2.9,1.1c-1.2,0-2.2-0.4-2.9-1.2c-0.8-0.8-1.2-1.8-1.2-2.9S254.4,126.6,255.2,125.9z M258.1,125.5
		c-0.5,0-0.8,0.3-1,0.8c-0.2,0.5-0.3,1.4-0.3,2.6c0,1.2,0.1,2.1,0.3,2.6c0.2,0.5,0.5,0.8,1,0.8c0.5,0,0.8-0.3,1-0.8
		c0.2-0.5,0.3-1.4,0.3-2.5c0-1.2-0.1-2-0.3-2.6C258.9,125.7,258.6,125.5,258.1,125.5z"/>
	<path class="st1" d="M270.6,131.1v0.9h0.8v0.7h-4.5V132h1v-6.3h-1V125h4.5v0.7h-0.8v4.3l2.4-3.4v-0.8h-0.8V125h4.5v0.7h-1v6.3h1
		v0.7h-4.5V132h0.8v-4.3L270.6,131.1z"/>
	<path class="st1" d="M285.9,132v0.7h-4.6V132h1v-9.1h-1v-0.7h4.6v0.7h-0.8v4.1h2.7v-4.1H287v-0.7h4.6v0.7h-1v9.1h1v0.7H287V132h0.8
		v-4.3h-2.7v4.3H285.9z"/>
	<path class="st1" d="M293.7,125.9c0.8-0.8,1.8-1.1,2.9-1.1c1.2,0,2.2,0.4,2.9,1.2c0.8,0.8,1.2,1.8,1.2,2.9c0,1.2-0.4,2.1-1.2,2.9
		c-0.8,0.8-1.8,1.1-2.9,1.1c-1.2,0-2.2-0.4-2.9-1.2c-0.8-0.8-1.2-1.8-1.2-2.9S292.9,126.6,293.7,125.9z M296.6,125.5
		c-0.5,0-0.8,0.3-1,0.8c-0.2,0.5-0.3,1.4-0.3,2.6c0,1.2,0.1,2.1,0.3,2.6c0.2,0.5,0.5,0.8,1,0.8c0.5,0,0.8-0.3,1-0.8
		c0.2-0.5,0.3-1.4,0.3-2.5c0-1.2-0.1-2-0.3-2.6C297.4,125.7,297.1,125.5,296.6,125.5z"/>
	<path class="st1" d="M305.9,132.6h-4.4V132h1v-6.3h-1V125h4.4c0.3,0,0.5,0,0.8,0s0.5,0,0.8,0.1c0.3,0,0.6,0.1,0.8,0.2
		c0.2,0.1,0.4,0.2,0.7,0.3s0.4,0.3,0.5,0.5c0.1,0.2,0.2,0.5,0.2,0.8c0,1-0.8,1.6-2.2,1.7c1.7,0.1,2.6,0.7,2.6,1.9
		c0,0.4-0.1,0.7-0.3,1s-0.4,0.5-0.7,0.6s-0.6,0.3-1,0.3c-0.4,0.1-0.7,0.1-1,0.1S306.3,132.6,305.9,132.6z M306.9,127
		c0-0.9-0.5-1.3-1.4-1.3h-0.2v2.7h0.4c0.5,0,0.8-0.1,1-0.3S306.9,127.5,306.9,127z M305.6,129h-0.3v2.9h0.3c0.5,0,1-0.1,1.2-0.3
		s0.4-0.6,0.4-1.1c0-0.6-0.1-0.9-0.4-1.2C306.6,129.1,306.1,129,305.6,129z"/>
	<path class="st1" d="M312.1,125.9c0.8-0.8,1.8-1.1,2.9-1.1c1.2,0,2.2,0.4,2.9,1.2c0.8,0.8,1.2,1.8,1.2,2.9c0,1.2-0.4,2.1-1.2,2.9
		c-0.8,0.8-1.8,1.1-2.9,1.1c-1.2,0-2.2-0.4-2.9-1.2c-0.8-0.8-1.2-1.8-1.2-2.9S311.3,126.6,312.1,125.9z M315,125.5
		c-0.5,0-0.8,0.3-1,0.8c-0.2,0.5-0.3,1.4-0.3,2.6c0,1.2,0.1,2.1,0.3,2.6c0.2,0.5,0.5,0.8,1,0.8c0.5,0,0.8-0.3,1-0.8
		c0.2-0.5,0.3-1.4,0.3-2.5c0-1.2-0.1-2-0.3-2.6C315.8,125.7,315.4,125.5,315,125.5z"/>
	<path class="st1" d="M326.3,130.2l0.7,0.1c-0.1,0.8-0.5,1.5-1,1.9c-0.5,0.5-1.2,0.7-2.1,0.7c-1.2,0-2.1-0.4-2.9-1.1s-1.1-1.7-1.1-3
		c0-1.2,0.4-2.2,1.1-2.9c0.8-0.7,1.8-1.1,3-1.1c0.9,0,1.5,0.2,2.1,0.5s0.8,1,0.8,1.8c0,0.4-0.1,0.7-0.3,0.9
		c-0.2,0.2-0.5,0.3-0.9,0.3c-0.4,0-0.7-0.1-1-0.3c-0.2-0.2-0.4-0.5-0.4-0.9c0-0.4,0.1-0.7,0.3-0.9c0.2-0.2,0.5-0.4,0.8-0.4
		c-0.1-0.1-0.2-0.2-0.4-0.3c-0.2-0.1-0.4-0.1-0.6-0.1c-0.3,0-0.6,0.1-0.8,0.2c-0.2,0.2-0.4,0.4-0.5,0.6c-0.1,0.2-0.2,0.5-0.3,0.9
		s-0.1,0.7-0.1,0.9s0,0.5,0,0.9c0,2.2,0.6,3.3,1.7,3.3C325.4,132,326,131.4,326.3,130.2z"/>
	<path class="st1" d="M331.5,125.7v6.3h0.7v0.7h-4.4V132h1v-6.3h-1V125h9.4v0.7h-1v6.3h1v0.7h-4.4V132h0.7v-6.3H331.5z"/>
	<path class="st1" d="M344.9,132.9c-1.2,0-1.9-0.6-2-1.9c-0.2,0.6-0.5,1.1-0.9,1.4c-0.5,0.3-1,0.5-1.7,0.5c-0.6,0-1.2-0.2-1.6-0.5
		c-0.4-0.3-0.7-0.8-0.7-1.4c0-0.4,0.1-0.8,0.3-1.1c0.2-0.3,0.5-0.6,0.9-0.7c0.4-0.2,0.8-0.3,1.1-0.4c0.3-0.1,0.7-0.2,1.2-0.2
		l1.1-0.2v-1.1c0-1.2-0.5-1.8-1.6-1.8c-0.5,0-0.8,0.1-1.1,0.3c0.6,0.2,0.9,0.6,0.9,1.2c0,0.4-0.1,0.7-0.3,0.9
		c-0.2,0.2-0.5,0.3-0.9,0.3c-0.4,0-0.7-0.1-1-0.3s-0.4-0.5-0.4-0.9c0-0.4,0.1-0.8,0.4-1.1c0.3-0.3,0.6-0.5,1-0.7
		c0.4-0.2,0.8-0.3,1.2-0.4c0.4-0.1,0.8-0.1,1.2-0.1c0.4,0,0.8,0,1.2,0.1s0.7,0.2,1,0.4s0.6,0.4,0.8,0.8s0.3,0.7,0.3,1.2v4.1
		c0,0.2,0,0.4,0.1,0.5c0.1,0.1,0.2,0.2,0.3,0.2c0.4,0,0.6-0.5,0.6-1.5h0.6c0,0.8-0.1,1.5-0.4,1.9
		C346.2,132.7,345.7,132.9,344.9,132.9z M340.7,130.6c0,0.6,0.2,0.9,0.7,0.9c0.7,0,1.1-0.7,1.1-2V129l-0.5,0.1
		c-0.4,0.1-0.8,0.3-1,0.5C340.8,129.8,340.7,130.2,340.7,130.6z"/>
	<path class="st1" d="M353.7,130.2l0.7,0.1c-0.1,0.8-0.5,1.5-1,1.9c-0.5,0.5-1.2,0.7-2.1,0.7c-1.2,0-2.1-0.4-2.9-1.1
		c-0.7-0.8-1.1-1.7-1.1-3c0-1.2,0.4-2.2,1.1-2.9c0.8-0.7,1.8-1.1,3-1.1c0.8,0,1.5,0.2,2.1,0.5s0.8,1,0.8,1.8c0,0.4-0.1,0.7-0.3,0.9
		c-0.2,0.2-0.5,0.3-0.9,0.3c-0.4,0-0.7-0.1-1-0.3c-0.2-0.2-0.4-0.5-0.4-0.9c0-0.4,0.1-0.7,0.3-0.9s0.5-0.4,0.8-0.4
		c-0.1-0.1-0.2-0.2-0.4-0.3c-0.2-0.1-0.4-0.1-0.6-0.1c-0.3,0-0.6,0.1-0.8,0.2c-0.2,0.2-0.4,0.4-0.5,0.6c-0.1,0.2-0.2,0.5-0.3,0.9
		c-0.1,0.4-0.1,0.7-0.1,0.9s0,0.5,0,0.9c0,2.2,0.6,3.3,1.7,3.3C352.9,132,353.5,131.4,353.7,130.2z"/>
	<path class="st1" d="M361.5,130.2l0.7,0.1c-0.1,0.8-0.5,1.5-1,1.9c-0.5,0.5-1.2,0.7-2.1,0.7c-1.2,0-2.1-0.4-2.9-1.1
		c-0.7-0.8-1.1-1.7-1.1-3c0-1.2,0.4-2.2,1.1-2.9c0.8-0.7,1.8-1.1,3-1.1c0.8,0,1.5,0.2,2.1,0.5s0.8,1,0.8,1.8c0,0.4-0.1,0.7-0.3,0.9
		c-0.2,0.2-0.5,0.3-0.9,0.3c-0.4,0-0.7-0.1-1-0.3c-0.2-0.2-0.4-0.5-0.4-0.9c0-0.4,0.1-0.7,0.3-0.9s0.5-0.4,0.8-0.4
		c-0.1-0.1-0.2-0.2-0.4-0.3c-0.2-0.1-0.4-0.1-0.6-0.1c-0.3,0-0.6,0.1-0.8,0.2c-0.2,0.2-0.4,0.4-0.5,0.6c-0.1,0.2-0.2,0.5-0.3,0.9
		c-0.1,0.4-0.1,0.7-0.1,0.9s0,0.5,0,0.9c0,2.2,0.6,3.3,1.7,3.3C360.7,132,361.3,131.4,361.5,130.2z"/>
	<path class="st1" d="M370.6,132.9c-0.6,0-1.1-0.2-1.5-0.5s-0.6-0.8-0.8-1.4c-0.1-0.6-0.2-1-0.3-1.3c-0.1-0.3-0.2-0.4-0.4-0.5
		c-0.2-0.1-0.4-0.1-0.6-0.1h-0.2v2.9h0.9v0.7H363V132h1v-6.3h-1V125h4.6v0.7h-0.9v2.7h0.5c0.2,0,0.4-0.1,0.6-0.3
		c0.2-0.2,0.3-0.6,0.5-1.2c0.1-0.4,0.2-0.8,0.3-1c0.3-0.8,0.9-1.2,1.8-1.2c0.5,0,0.8,0.1,1.1,0.4c0.3,0.2,0.4,0.6,0.4,1
		c0,0.4-0.1,0.7-0.3,0.9c-0.2,0.2-0.5,0.4-0.8,0.4c-0.4,0-0.7-0.1-0.9-0.3c-0.2-0.2-0.3-0.5-0.3-0.9c0-0.1,0-0.2,0.1-0.3
		c0-0.1,0.1-0.2,0.1-0.3c-0.1,0.1-0.2,0.2-0.3,0.3c-0.1,0.2-0.2,0.5-0.3,0.9c-0.2,0.6-0.3,1-0.4,1.2c-0.1,0.2-0.3,0.4-0.5,0.5
		c0.8,0.2,1.5,0.4,1.9,0.7c0.3,0.2,0.5,0.4,0.7,0.6c0.1,0.2,0.2,0.6,0.4,1c0.1,0.5,0.2,0.7,0.3,0.8c0,0.1,0.1,0.1,0.2,0.1
		c0.1,0,0.2-0.1,0.3-0.4c0.1-0.3,0.1-0.7,0.1-1.2h0.6c0,0.8-0.1,1.5-0.4,1.9C371.8,132.7,371.3,132.9,370.6,132.9z"/>
	<path class="st1" d="M374.2,125.9c0.8-0.8,1.8-1.1,2.9-1.1s2.2,0.4,2.9,1.2c0.8,0.8,1.2,1.8,1.2,2.9c0,1.2-0.4,2.1-1.2,2.9
		s-1.8,1.1-2.9,1.1c-1.2,0-2.2-0.4-2.9-1.2c-0.8-0.8-1.2-1.8-1.2-2.9S373.5,126.6,374.2,125.9z M377.2,125.5c-0.5,0-0.8,0.3-1,0.8
		c-0.2,0.5-0.3,1.4-0.3,2.6c0,1.2,0.1,2.1,0.3,2.6c0.2,0.5,0.5,0.8,1,0.8c0.5,0,0.8-0.3,1-0.8c0.2-0.5,0.3-1.4,0.3-2.5
		c0-1.2-0.1-2-0.3-2.6C378,125.7,377.6,125.5,377.2,125.5z"/>
	<path class="st1" d="M385.8,132h1.6v0.7h-5.3V132h1v-6.3h-1V125h6.8v2.9h-0.6v-0.3c0-0.6-0.1-1.1-0.4-1.4c-0.3-0.4-0.7-0.5-1.3-0.5
		h-0.7V132z"/>
	<path class="st1" d="M390.9,125.9c0.8-0.8,1.8-1.1,2.9-1.1s2.2,0.4,2.9,1.2c0.8,0.8,1.2,1.8,1.2,2.9c0,1.2-0.4,2.1-1.2,2.9
		s-1.8,1.1-2.9,1.1c-1.2,0-2.2-0.4-2.9-1.2c-0.8-0.8-1.2-1.8-1.2-2.9S390.1,126.6,390.9,125.9z M393.8,125.5c-0.5,0-0.8,0.3-1,0.8
		c-0.2,0.5-0.3,1.4-0.3,2.6c0,1.2,0.1,2.1,0.3,2.6c0.2,0.5,0.5,0.8,1,0.8c0.5,0,0.8-0.3,1-0.8c0.2-0.5,0.3-1.4,0.3-2.5
		c0-1.2-0.1-2-0.3-2.6C394.6,125.7,394.2,125.5,393.8,125.5z"/>
	<path class="st1" d="M407.5,132h1v-9.1h-2.2c0,1.7,0,2.8,0,3.4c-0.1,2.9-0.3,4.8-0.8,5.6c-0.3,0.6-0.9,0.9-1.7,0.9
		c-0.5,0-1-0.2-1.3-0.5c-0.3-0.3-0.5-0.8-0.5-1.3c0-0.4,0.1-0.8,0.4-1.1c0.2-0.3,0.6-0.4,1-0.4c0.4,0,0.7,0.1,0.9,0.3
		c0.2,0.2,0.4,0.5,0.4,0.9c0,0.3-0.1,0.6-0.3,0.8c-0.2,0.3-0.4,0.4-0.7,0.5c0.1,0.1,0.2,0.1,0.3,0.1c0.5,0,0.8-0.3,1-1
		c0.2-0.6,0.3-1.8,0.4-3.4c0-0.4,0-1.1,0.1-2.1c0-0.5,0-1.5,0-2.9h-1.3v-0.7h8.1v0.7h-1v9.1h1v0.7h-4.8V132z"/>
	<path class="st1" d="M417.9,122c1.5,0,2.6,0.5,3.4,1.6c0.8,1.1,1.2,2.3,1.2,3.9c0,1-0.2,1.9-0.5,2.7s-0.9,1.5-1.6,2
		c-0.7,0.5-1.6,0.8-2.6,0.8c-1,0-1.8-0.3-2.6-0.8c-0.7-0.5-1.3-1.2-1.6-2c-0.3-0.8-0.5-1.7-0.5-2.7c0-1,0.2-1.9,0.5-2.7
		c0.3-0.8,0.9-1.5,1.6-2C416.1,122.2,416.9,122,417.9,122z M417.9,122.7c-0.6,0-1.1,0.4-1.3,1.1c-0.3,0.8-0.4,2-0.4,3.7
		c0,1.7,0.1,2.9,0.4,3.7c0.3,0.7,0.7,1.1,1.3,1.1s1.1-0.4,1.3-1.1c0.3-0.8,0.4-2,0.4-3.7c0-1.7-0.1-2.9-0.4-3.7
		C419,123,418.6,122.7,417.9,122.7z"/>
	<path class="st1" d="M428.1,132v0.7h-4.6V132h1v-9.1h-1v-0.7h4.6v0.7h-0.8v4.1h2.7v-4.1h-0.8v-0.7h4.6v0.7h-1v9.1h1v0.7h-4.6V132
		h0.8v-4.3h-2.7v4.3H428.1z"/>
	<path class="st1" d="M440.2,132v0.7h-5.5V132h1v-9.1h-1v-0.7h7.5v3.3h-0.7v-0.4c0-0.8-0.2-1.4-0.6-1.7c-0.4-0.4-1-0.5-1.9-0.5h-0.5
		v9.1H440.2z"/>
	<path class="st1" d="M446.7,132h0.9v0.7h-4.7V132h1v-9.1h-1v-0.7h4.7v0.7h-0.9v5.9l3-4.6v-1.3h-0.9v-0.7h4.7v0.7h-1v9.1h1v0.7h-4.7
		V132h0.9v-6.4l-3,4.6V132z"/>
	<path class="st1" d="M459,132v0.7h-4.6V132h1v-9.1h-1v-0.7h4.6v0.7h-0.8v4.1h2.7v-4.1h-0.8v-0.7h4.6v0.7h-1v9.1h1v0.7h-4.6V132h0.8
		v-4.3h-2.7v4.3H459z"/>
	<path class="st1" d="M468,132v0.7h-2.9V132h0.9l3.3-9.9h1.6l3.3,9.9h0.9v0.7h-5.1V132h1.4l-0.8-2.5h-2.8l-0.8,2.5H468z M469,125.1
		l-1.2,3.8h2.4L469,125.1z"/>
</g>
</svg>
